<?xml version="1.0" encoding="utf-8"?>
<!-- Generator: Adobe Illustrator 16.0.0, SVG Export Plug-In . SVG Version: 6.00 Build 0)  -->
<!DOCTYPE svg PUBLIC "-//W3C//DTD SVG 1.1//EN" "http://www.w3.org/Graphics/SVG/1.1/DTD/svg11.dtd">
<svg version="1.1" xmlns="http://www.w3.org/2000/svg" xmlns:xlink="http://www.w3.org/1999/xlink" x="0px" y="0px"
	 width="242.259px" height="443.628px" viewBox="0 0 242.259 443.628" enable-background="new 0 0 242.259 443.628"
	 xml:space="preserve">
<g id="Layer_1" display="none">
	
		<image display="inline" overflow="visible" width="2448" height="3264" xlink:href="../a.jpg"  transform="matrix(0.1833 0 0 0.1833 -83.6245 -48.7939)">
	</image>
</g>
<g id="body">
	<path fill="#998477" stroke="#7A5C4E" stroke-miterlimit="10" d="M86.692,240.628c0,0,5.667,8.333,0,19.667s-25-3.666-30.667,5.667
		s-7,104.333-7,104.333s-5,19,10.333,22s3.334-13.334,4.667-19.667s4.703-58,4.703-58l5.63,85.667c0,0-3,23.001-1.667,28.667
		s10.667,7.334,11.667,0s-0.636-28.058,5.458-33.542c3.333-3,51.719-3.501,55.094-0.376s-3.719,32.251,1.031,37.751
		s6.75,2.125,9.5-4s2.5-31.375,5.25-35s3-71,5-81s2.5,60.5,2.5,60.5s-2,17.5,2.5,21.5s14.5,1.5,11.5-19.5s4-109-6.5-112
		s-29.5-0.5-29.5-10.5s-0.5-7.333,3-12.167S86.692,240.628,86.692,240.628z"/>
</g>
<g id="face">
	<path fill="#998477" stroke="#7A5C4E" stroke-miterlimit="10" d="M219.312,177.794l0.29-1.34c-14.59,43.03-53.82,73.84-99.91,73.84
		c-18.51,0-35.92-4.97-51.06-13.71c-17.52-10.1-32.01-25.23-41.7-43.55c-2.16-4.07-4.08-8.3-5.74-12.66
		c-8,5.58-28.5-7.08-18.5-26.08c7.66-11.14,11.14-6.18,11.35-5.87c-0.23-3.01-0.35-6.05-0.35-9.13c0-61.3,47.46-111,106-111
		s106,49.7,106,111c0,3.72-0.17,7.4-0.52,11.03c0,0,2.1-4.61,6.77-4.95c2.56-0.18,6.5,2.78,7.75,5.17
		C249.792,170.634,227.382,183.705,219.312,177.794z"/>
</g>
<g id="blush" display="none" opacity="0.12">
	<path display="inline" fill="#66302A" d="M78.962,213.854c0,9.07-4,17.2-10.33,22.73c-17.52-10.1-32.01-25.23-41.7-43.55
		c5.49-5.77,13.25-9.36,21.85-9.36C65.452,183.674,78.962,197.185,78.962,213.854z"/>
	<path display="inline" fill="#66302A" d="M160.932,213.854c0,9.07,4,17.2,10.33,22.73c17.52-10.1,32.01-25.23,41.699-43.55
		c-5.49-5.77-13.25-9.36-21.85-9.36C174.442,183.674,160.932,197.185,160.932,213.854z"/>
</g>
<g id="hair">
	<path fill="#33302E" stroke="#2D2624" stroke-miterlimit="10" d="M22.254,165.544c-3.812-8.188-9.19-10.555-13.812-14.75
		c-3.833-12-0.25-33-0.25-33s-12.667-15.167,9.5-50.5c11.917-18.083,36.333-40,42.823-47.1c0.177,5.933-3.073,9.683-1.323,13.6
		c3.5-3,53-31,66-30.5c-12.629,11.749-23.5,17-23.5,17s67.668-29,88-17.667c-18.942,5-24,8.667-30.666,10.667
		c7.5,0,53.166-6.833,63.666,24.667c-7.667-5.417-10.25-6-19.5-4.5c16.496,2.471,29.081,38.779,29.5,48.661
		c-2.672-2.863-2.342-4.255-10.467-7.505c8.75,11.375,18.842,43.302,13.467,73.177c-1.966,0.062-2-1.167-6,1
		c-2.584,4.5-4.917,6.25-12,13.833c-0.971,0.794-1.75,0.667-1.058-3.005c3.974-8.995,2.39-27.995-0.776-39.579
		c1.501-7.75-16.166-36.083-22.997-33.514c-4.415-3.391-26.835-31.236-49.669-32.736c3.667,3.167,4.5,3.833,6,6.5
		c-12-6.833-43.667-6.333-65.5,2.5c5-0.167,6.938,0.125,9.375,0.688c-21.625,3.938-40.312,8.688-56,27.812
		c2.5,15,0.499,15.674,2.875,23.25c-6-5.875-6.75-13.125-11.25,14.25C25.129,138.482,23.942,153.232,22.254,165.544z"/>
	<ellipse fill="#33302E" stroke="#2D2624" stroke-miterlimit="10" cx="117.692" cy="223.294" rx="11" ry="2.5"/>
	<path fill="#33302E" stroke="#2D2624" stroke-miterlimit="10" d="M148.692,246.794c0,4.971-13.599,9-30.375,9
		s-33.875-4.029-33.875-9s17.099-9,33.875-9S148.692,241.824,148.692,246.794z"/>
</g>
<g id="eyes" display="none">
	<path id="l" display="inline" fill="none" stroke="#2D2624" stroke-miterlimit="10" d="M56.192,140.294c0,0,19.5,20,35-2.5"/>
	<path id="r" display="inline" fill="none" stroke="#2D2624" stroke-miterlimit="10" d="M184.948,139.773
		c0,0-18.658,20.788-35.073-1.053"/>
	<path display="inline" fill="#2D2624" d="M46.271,104.063l-0.492-0.87c0.315-0.178,7.751-4.373,10.284-5.048l0.258,0.966
		C53.91,99.754,46.348,104.02,46.271,104.063z"/>
	<path display="inline" fill="#2D2624" d="M193.667,106.976c-3.922-4.042-10.943-5.367-11.014-5.38l0.18-0.983
		c0.301,0.055,7.403,1.393,11.551,5.667L193.667,106.976z"/>
	<g>
		<path display="inline" fill="#8C2626" stroke="#471A1A" stroke-miterlimit="10" d="M81.073,127.965
			c0.463-0.072,0.959-0.123,1.494-0.152c3.255-0.182,7.416,2.181,8.736,7.737l0.289,1.872c0.412,5.45-2.629,12.717-13.222,22.883
			c-13.165-6.499-18.254-12.512-19.505-17.832l-0.289-1.872c-0.417-5.695,2.838-9.203,5.995-10.01
			c0.52-0.134,1.008-0.234,1.471-0.306c3.704-0.572,5.729,0.755,8.138,2.865C75.838,130.412,77.368,128.536,81.073,127.965"/>
	</g>
	<g>
		<path display="inline" fill="#8C2626" stroke="#471A1A" stroke-miterlimit="10" d="M159.093,127.965
			c3.704,0.571,5.234,2.447,6.894,5.185c2.41-2.11,4.435-3.437,8.139-2.865c0.463,0.071,0.951,0.172,1.471,0.306
			c3.157,0.807,6.412,4.315,5.995,10.01l-0.289,1.872c-1.251,5.319-6.341,11.333-19.505,17.832
			c-10.594-10.166-13.635-17.433-13.223-22.883l0.289-1.872c1.319-5.556,5.48-7.919,8.735-7.737
			C158.133,127.842,158.629,127.893,159.093,127.965"/>
	</g>
</g>
<g id="glasses" display="none">
	<path id="l_x5F_frame" display="inline" fill="#2D2624" d="M104.072,138.574l-2.04-18.75l-60.56,6.57l0.49,4.53l0.17,1.57
		l3.22,29.61l60.56-6.58L104.072,138.574z M42.852,127.504l58.08-6.3l3.6,33.22l-58.08,6.3L42.852,127.504z"/>
	<path id="r_x5F_frame" display="inline" fill="#2D2624" d="M195.702,161.86l-60.561-6.572l3.875-35.707l60.56,6.572L195.702,161.86
		z M136.519,154.181l58.076,6.301l3.604-33.222l-58.076-6.301L136.519,154.181z"/>
	<path id="nose_x5F_bridge" display="inline" fill="#2D2624" d="M103.546,139.93l-0.93-1.771c7.801-4.095,27.042-5.857,36.021-0.3
		l-1.053,1.7C129.29,134.426,110.776,136.136,103.546,139.93z"/>
	<path id="l_x5F_earpiece" display="inline" fill="#2D2624" d="M42.132,132.495c-2.53,1.25-23.67,11.75-32.21,20.27l-0.7-1.35
		c9.16-9.14,32.49-20.46,32.72-20.57l0.02,0.08L42.132,132.495z"/>
	<path id="r_x5F_earpiece" display="inline" fill="#2D2624" d="M232.625,148.189c-6.45-6.886-34.631-16.682-34.907-16.799
		l0.779-1.842c1.143,0.483,28.849,10.079,35.587,17.273L232.625,148.189z"/>
</g>
<g id="mouth" display="none">
	<path id="smile" display="inline" fill="none" stroke="#2D2624" stroke-miterlimit="10" d="M141.983,204.036
		c-9.241,12.938-39.605,12.271-48.583,2.112"/>
	<circle id="open_x5F_mouth" fill="#2D2624" cx="118.025" cy="211.762" r="4.649"/>
</g>
<g id="pants">
	<path fill="#2D405B" stroke="#1C2530" stroke-miterlimit="10" d="M67.692,408.294c-0.083-6.834,0.531-16.194,3.833-24.167
		c14-2.666,86.417-4.083,94.667-2.083c1.583,11.083,1,17.917,0,29.25c-9.5-2.583-16.833-2.667-26.688-0.925
		c0.333-5.417,1.188-10.575,1.188-10.575s-32.75-2.084-49.14-0.971c-0.667,3.583-0.86,5.971-0.61,8.971
		C81.442,407.127,75.192,406.71,67.692,408.294z"/>
</g>
<g id="shoes">
	<path fill="#54585B" stroke="#373A3D" stroke-miterlimit="10" d="M57.025,443.628h37.667c0,0,3.5-16.02-9-16
		c-7.667-0.02-10.667-0.02-18.007-0.02C57.858,427.609,56.025,435.619,57.025,443.628z"/>
	<path fill="#54585B" stroke="#373A3D" stroke-miterlimit="10" d="M170.901,443.628h-37.666c0,0-3.5-16.02,9-16
		c7.666-0.02,10.666-0.02,18.007-0.02C170.069,427.609,171.901,435.619,170.901,443.628z"/>
</g>
<g id="bangles">
	<path fill="#2D2624" d="M66.945,377.099c-8.833-5.01-23.186-5.799-23.33-5.807l0.153-2.996c0.616,0.031,15.2,0.83,24.657,6.193
		L66.945,377.099z"/>
	<path fill="#2D2624" d="M66.945,372.099c-8.833-5.01-23.186-5.799-23.33-5.807l0.153-2.996c0.616,0.031,15.2,0.83,24.657,6.193
		L66.945,372.099z"/>
	<path fill="#2D2624" d="M66.945,367.099c-8.833-5.01-23.186-5.799-23.33-5.807l0.153-2.996c0.616,0.031,15.2,0.83,24.657,6.193
		L66.945,367.099z"/>
</g>
<g id="shirt_1_">
	<path id="shirt" fill="#66302A" stroke="#3A201E" stroke-miterlimit="10" d="M52.692,261.794l33.333-4c0,0,37.834,18.5,64,0
		c9.166,0.301,32.333,2.5,32.333,2.5l11.833,61.334l-20.167,4.833c0,0-5.658,44.755-7.666,62.833
		c-29.25-5.417-73.167-5.499-100.667,2.5c-1.667-11.999-5.833-63.167-5.833-63.167l-18-6.166L52.692,261.794z"/>
	<path fill="#5E2D2D" d="M119.981,273.046c-16.467,0-33.029-5.689-42.614-13.872l0.649-0.76
		c17.339,14.802,57.863,21.337,78.315,0.033l0.721,0.693C147.549,269.041,133.798,273.046,119.981,273.046z"/>
	<path fill="none" d="M73.192,334.294c25.75-15.666,63.5-15.666,85.75,0"/>
	<text transform="matrix(0.9542 -0.2993 0.2993 0.9542 75.8643 331.1636)"><tspan x="0" y="0" fill="#A37911" font-family="'FineCollege'" font-size="45">U</tspan><tspan x="28.114" y="-0.264" fill="#A37911" font-family="'FineCollege'" font-size="45" rotate="17.596">S</tspan><tspan x="54.813" y="7.961" fill="#A37911" font-family="'FineCollege'" font-size="45" rotate="35.638">C</tspan></text>
</g>
</svg>
