<?xml version="1.0" encoding="utf-8"?>
<!-- Generator: Adobe Illustrator 16.0.0, SVG Export Plug-In . SVG Version: 6.00 Build 0)  -->
<!DOCTYPE svg PUBLIC "-//W3C//DTD SVG 1.1//EN" "http://www.w3.org/Graphics/SVG/1.1/DTD/svg11.dtd">
<svg version="1.1" xmlns="http://www.w3.org/2000/svg" xmlns:xlink="http://www.w3.org/1999/xlink" x="0px" y="0px"
	 width="148.605px" height="8.831px" viewBox="0 0 148.605 8.831" enable-background="new 0 0 148.605 8.831" xml:space="preserve">
<g id="Layer_1" display="none">
	
		<image display="inline" overflow="visible" width="2448" height="3264" xlink:href="../a.jpg"  transform="matrix(0.1833 0 0 0.1833 -129.4038 -146.939)">
	</image>
</g>
<g id="body" display="none">
	<path display="inline" fill="#998477" stroke="#7A5C4E" stroke-miterlimit="10" d="M40.913,142.483c0,0,5.667,8.333,0,19.667
		s-25-3.666-30.667,5.667s-7,104.333-7,104.333s-5,19,10.333,22s3.334-13.334,4.667-19.667s4.703-58,4.703-58l5.63,85.667
		c0,0-3,23.001-1.667,28.667s10.667,7.334,11.667,0s-0.636-28.058,5.458-33.542c3.333-3,51.719-3.501,55.094-0.376
		s-3.719,32.251,1.031,37.751s6.75,2.125,9.5-4s2.5-31.375,5.25-35s3-71,5-81s2.5,60.5,2.5,60.5s-2,17.5,2.5,21.5
		s14.5,1.5,11.5-19.5s4-109-6.5-112s-29.5-0.5-29.5-10.5s-0.5-7.333,3-12.167S40.913,142.483,40.913,142.483z"/>
</g>
<g id="face" display="none">
	<path display="inline" fill="#998477" stroke="#7A5C4E" stroke-miterlimit="10" d="M173.533,79.649l0.29-1.34
		c-14.59,43.03-53.82,73.84-99.91,73.84c-18.51,0-35.92-4.97-51.06-13.71c-17.52-10.1-32.01-25.23-41.7-43.55
		c-2.16-4.07-4.08-8.3-5.74-12.66c-8,5.58-28.5-7.08-18.5-26.08c7.66-11.14,11.14-6.18,11.35-5.87c-0.23-3.01-0.35-6.05-0.35-9.13
		c0-61.3,47.46-111,106-111s106,49.7,106,111c0,3.72-0.17,7.4-0.52,11.03c0,0,2.1-4.61,6.77-4.95c2.56-0.18,6.5,2.78,7.75,5.17
		C204.012,72.489,181.603,85.56,173.533,79.649z"/>
</g>
<g id="blush" display="none" opacity="0.12">
	<path display="inline" fill="#66302A" d="M33.183,115.709c0,9.07-4,17.2-10.33,22.73c-17.52-10.1-32.01-25.23-41.7-43.55
		c5.49-5.77,13.25-9.36,21.85-9.36C19.672,85.529,33.183,99.04,33.183,115.709z"/>
	<path display="inline" fill="#66302A" d="M115.153,115.709c0,9.07,4,17.2,10.33,22.73c17.52-10.1,32.01-25.23,41.699-43.55
		c-5.49-5.77-13.25-9.36-21.85-9.36C128.663,85.529,115.153,99.04,115.153,115.709z"/>
</g>
<g id="hair" display="none">
	<path display="inline" fill="#33302E" stroke="#2D2624" stroke-miterlimit="10" d="M-23.525,67.399
		c-3.812-8.188-9.19-10.555-13.812-14.75c-3.833-12-0.25-33-0.25-33s-12.667-15.167,9.5-50.5c11.917-18.083,36.333-40,42.823-47.1
		c0.177,5.933-3.073,9.683-1.323,13.6c3.5-3,53-31,66-30.5c-12.629,11.749-23.5,17-23.5,17s67.668-29,88-17.667
		c-18.942,5-24,8.667-30.666,10.667c7.5,0,53.166-6.833,63.666,24.667c-7.667-5.417-10.25-6-19.5-4.5
		c16.496,2.471,29.081,38.779,29.5,48.661c-2.672-2.863-2.342-4.255-10.467-7.505c8.75,11.375,18.842,43.302,13.467,73.177
		c-1.966,0.062-2-1.167-6,1c-2.584,4.5-4.917,6.25-12,13.833c-0.971,0.794-1.75,0.667-1.058-3.005
		c3.974-8.995,2.39-27.995-0.776-39.579c1.501-7.75-16.166-36.083-22.997-33.514c-4.415-3.391-26.835-31.236-49.669-32.736
		c3.667,3.167,4.5,3.833,6,6.5c-12-6.833-43.667-6.333-65.5,2.5c5-0.167,6.938,0.125,9.375,0.688
		c-21.625,3.938-40.312,8.688-56,27.812c2.5,15,0.499,15.674,2.875,23.25c-6-5.875-6.75-13.125-11.25,14.25
		C-20.65,40.337-21.837,55.087-23.525,67.399z"/>
	<ellipse display="inline" fill="#33302E" stroke="#2D2624" stroke-miterlimit="10" cx="71.913" cy="125.149" rx="11" ry="2.5"/>
	<path display="inline" fill="#33302E" stroke="#2D2624" stroke-miterlimit="10" d="M102.913,148.649c0,4.971-13.599,9-30.375,9
		s-33.875-4.029-33.875-9s17.099-9,33.875-9S102.913,143.679,102.913,148.649z"/>
</g>
<g id="eyes">
	<path id="l" display="none" fill="none" stroke="#2D2624" stroke-miterlimit="10" d="M10.413,42.149c0,0,19.5,20,35-2.5"/>
	<path id="r" display="none" fill="none" stroke="#2D2624" stroke-miterlimit="10" d="M139.168,41.628
		c0,0-18.658,20.788-35.073-1.053"/>
	<path fill="#2D2624" d="M0.492,5.918L0,5.048C0.315,4.87,7.751,0.675,10.284,0l0.258,0.966C8.131,1.609,0.568,5.875,0.492,5.918z"
		/>
	<path fill="#2D2624" d="M147.888,8.831c-3.922-4.042-10.943-5.367-11.014-5.38l0.18-0.983c0.301,0.055,7.403,1.393,11.551,5.667
		L147.888,8.831z"/>
	<g display="none">
		<path display="inline" fill="#8C2626" stroke="#471A1A" stroke-miterlimit="10" d="M35.293,29.82
			c0.463-0.072,0.959-0.123,1.494-0.152c3.255-0.182,7.416,2.181,8.736,7.737l0.289,1.872c0.412,5.45-2.629,12.717-13.222,22.883
			C19.425,55.66,14.335,49.647,13.084,44.328l-0.289-1.872c-0.417-5.695,2.838-9.203,5.995-10.01
			c0.52-0.134,1.008-0.234,1.471-0.306c3.704-0.572,5.729,0.755,8.138,2.865C30.059,32.267,31.589,30.391,35.293,29.82"/>
	</g>
	<g display="none">
		<path display="inline" fill="#8C2626" stroke="#471A1A" stroke-miterlimit="10" d="M113.314,29.82
			c3.704,0.571,5.234,2.447,6.894,5.185c2.41-2.11,4.435-3.437,8.139-2.865c0.463,0.071,0.951,0.172,1.471,0.306
			c3.157,0.807,6.412,4.315,5.995,10.01l-0.289,1.872c-1.251,5.319-6.341,11.333-19.505,17.832
			c-10.594-10.166-13.635-17.433-13.223-22.883l0.289-1.872c1.319-5.556,5.48-7.919,8.735-7.737
			C112.354,29.697,112.85,29.748,113.314,29.82"/>
	</g>
</g>
<g id="glasses" display="none">
	<path id="l_x5F_frame" display="inline" fill="#2D2624" d="M58.292,40.429l-2.04-18.75l-60.56,6.57l0.49,4.53l0.17,1.57l3.22,29.61
		l60.56-6.58L58.292,40.429z M-2.927,29.359l58.08-6.3l3.6,33.22l-58.08,6.3L-2.927,29.359z"/>
	<path id="r_x5F_frame" display="inline" fill="#2D2624" d="M149.922,63.715l-60.561-6.572l3.875-35.707l60.56,6.572L149.922,63.715
		z M90.739,56.036l58.076,6.301l3.604-33.222l-58.076-6.301L90.739,56.036z"/>
	<path id="nose_x5F_bridge" display="inline" fill="#2D2624" d="M57.767,41.785l-0.93-1.771c7.801-4.095,27.042-5.857,36.021-0.3
		l-1.053,1.7C83.511,36.281,64.997,37.991,57.767,41.785z"/>
	<path id="l_x5F_earpiece" display="inline" fill="#2D2624" d="M-3.647,34.35c-2.53,1.25-23.67,11.75-32.21,20.27l-0.7-1.35
		c9.16-9.14,32.49-20.46,32.72-20.57l0.02,0.08L-3.647,34.35z"/>
	<path id="r_x5F_earpiece" display="inline" fill="#2D2624" d="M186.846,50.044c-6.45-6.886-34.631-16.682-34.907-16.799
		l0.779-1.842c1.143,0.483,28.849,10.079,35.587,17.273L186.846,50.044z"/>
</g>
<g id="mouth" display="none">
	<path id="smile" display="inline" fill="none" stroke="#2D2624" stroke-miterlimit="10" d="M96.204,105.891
		c-9.241,12.938-39.605,12.271-48.583,2.112"/>
	<circle id="open_x5F_mouth" fill="#2D2624" cx="72.246" cy="113.617" r="4.649"/>
</g>
<g id="pants" display="none">
	<path display="inline" fill="#2D405B" stroke="#1C2530" stroke-miterlimit="10" d="M21.913,310.149
		c-0.083-6.834,0.531-16.194,3.833-24.167c14-2.666,86.417-4.083,94.667-2.083c1.583,11.083,1,17.917,0,29.25
		c-9.5-2.583-16.833-2.667-26.688-0.925c0.333-5.417,1.188-10.575,1.188-10.575s-32.75-2.084-49.14-0.971
		c-0.667,3.583-0.86,5.971-0.61,8.971C35.663,308.982,29.413,308.565,21.913,310.149z"/>
</g>
<g id="shoes" display="none">
	<path display="inline" fill="#54585B" stroke="#373A3D" stroke-miterlimit="10" d="M11.246,345.483h37.667c0,0,3.5-16.02-9-16
		c-7.667-0.02-10.667-0.02-18.007-0.02C12.079,329.464,10.246,337.474,11.246,345.483z"/>
	<path display="inline" fill="#54585B" stroke="#373A3D" stroke-miterlimit="10" d="M125.122,345.483H87.456c0,0-3.5-16.02,9-16
		c7.666-0.02,10.666-0.02,18.007-0.02C124.29,329.464,126.122,337.474,125.122,345.483z"/>
</g>
<g id="bangles" display="none">
	<path display="inline" fill="#2D2624" d="M21.166,278.954c-8.833-5.01-23.186-5.799-23.33-5.807l0.153-2.996
		c0.616,0.031,15.2,0.83,24.657,6.193L21.166,278.954z"/>
	<path display="inline" fill="#2D2624" d="M21.166,273.954c-8.833-5.01-23.186-5.799-23.33-5.807l0.153-2.996
		c0.616,0.031,15.2,0.83,24.657,6.193L21.166,273.954z"/>
	<path display="inline" fill="#2D2624" d="M21.166,268.954c-8.833-5.01-23.186-5.799-23.33-5.807l0.153-2.996
		c0.616,0.031,15.2,0.83,24.657,6.193L21.166,268.954z"/>
</g>
<g id="shirt_1_" display="none">
	<path id="shirt" display="inline" fill="#66302A" stroke="#3A201E" stroke-miterlimit="10" d="M6.913,163.649l33.333-4
		c0,0,37.834,18.5,64,0c9.166,0.301,32.333,2.5,32.333,2.5l11.833,61.334l-20.167,4.833c0,0-5.658,44.755-7.666,62.833
		c-29.25-5.417-73.167-5.499-100.667,2.5c-1.667-11.999-5.833-63.167-5.833-63.167l-18-6.166L6.913,163.649z"/>
	<path display="inline" fill="#5E2D2D" d="M74.202,174.901c-16.467,0-33.029-5.689-42.614-13.872l0.649-0.76
		c17.339,14.802,57.863,21.337,78.315,0.033l0.721,0.693C101.77,170.896,88.019,174.901,74.202,174.901z"/>
	<path display="inline" fill="none" d="M27.413,236.149c25.75-15.666,63.5-15.666,85.75,0"/>
	<text transform="matrix(0.9542 -0.2993 0.2993 0.9542 30.085 233.0186)" display="inline"><tspan x="0" y="0" fill="#A37911" font-family="'FineCollege'" font-size="45">U</tspan><tspan x="28.114" y="-0.264" fill="#A37911" font-family="'FineCollege'" font-size="45" rotate="17.596">S</tspan><tspan x="54.813" y="7.961" fill="#A37911" font-family="'FineCollege'" font-size="45" rotate="35.638">C</tspan></text>
</g>
</svg>
