<?xml version="1.0" encoding="utf-8"?>
<!-- Generator: Adobe Illustrator 16.0.0, SVG Export Plug-In . SVG Version: 6.00 Build 0)  -->
<!DOCTYPE svg PUBLIC "-//W3C//DTD SVG 1.1//EN" "http://www.w3.org/Graphics/SVG/1.1/DTD/svg11.dtd">
<svg version="1.1" xmlns="http://www.w3.org/2000/svg" xmlns:xlink="http://www.w3.org/1999/xlink" x="0px" y="0px"
	 width="49.364px" height="10.516px" viewBox="0 0 49.364 10.516" enable-background="new 0 0 49.364 10.516" xml:space="preserve">
<g id="Layer_1" display="none">
	
		<image display="inline" overflow="visible" width="2448" height="3264" xlink:href="../a.jpg"  transform="matrix(0.1833 0 0 0.1833 78.3052 -804.772)">
	</image>
</g>
<g id="body" display="none">
	<path display="inline" fill="#998477" stroke="#7A5C4E" stroke-miterlimit="10" d="M-7.072,35.498c0,0,5.667,8.334,0,19.666
		c-5.666,11.334-24.999-3.666-30.666,5.668c-5.667,9.332-7,104.332-7,104.332s-5.001,19,10.333,22
		c15.333,3,3.334-13.334,4.667-19.666c1.333-6.334,4.702-58,4.702-58l5.631,85.666c0,0-3,23.002-1.667,28.668
		c1.334,5.666,10.667,7.334,11.667,0s-0.636-28.059,5.458-33.543c3.334-3,51.719-3.5,55.094-0.375s-3.719,32.25,1.031,37.75
		s6.75,2.125,9.5-4s2.5-31.375,5.25-35s3-71,5-81s2.5,60.5,2.5,60.5s-2,17.5,2.5,21.5s14.5,1.5,11.5-19.5s4-109-6.5-112
		s-29.5-0.5-29.5-10.5s-0.5-7.332,3-12.166S-7.072,35.498-7.072,35.498z"/>
</g>
<g id="face" display="none">
	<path display="inline" fill="#998477" stroke="#7A5C4E" stroke-miterlimit="10" d="M125.549-27.336l0.289-1.34
		c-14.59,43.029-53.82,73.84-99.91,73.84c-18.51,0-35.92-4.971-51.06-13.709c-17.521-10.1-32.01-25.23-41.7-43.551
		c-2.16-4.07-4.08-8.299-5.74-12.66c-8,5.58-28.5-7.08-18.5-26.08c7.66-11.139,11.141-6.18,11.351-5.869
		c-0.23-3.01-0.351-6.051-0.351-9.131c0-61.299,47.46-111,106-111s106,49.701,106,111c0,3.721-0.17,7.4-0.52,11.031
		c0,0,2.1-4.611,6.77-4.951c2.559-0.18,6.5,2.781,7.75,5.17C156.028-34.496,133.618-21.426,125.549-27.336z"/>
</g>
<g id="blush" display="none" opacity="0.12">
	<path display="inline" fill="#66302A" d="M240.892-542.124c0,9.07-4,17.2-10.33,22.73c-17.52-10.1-32.01-25.23-41.7-43.55
		c5.49-5.77,13.25-9.36,21.85-9.36C227.381-572.304,240.892-558.793,240.892-542.124z"/>
	<path display="inline" fill="#66302A" d="M322.862-542.124c0,9.07,4,17.2,10.33,22.73c17.52-10.1,32.01-25.23,41.699-43.55
		c-5.49-5.77-13.25-9.36-21.85-9.36C336.372-572.304,322.862-558.793,322.862-542.124z"/>
</g>
<g id="hair" display="none">
	<path display="inline" fill="#33302E" stroke="#2D2624" stroke-miterlimit="10" d="M-71.509-39.586
		c-3.812-8.188-9.19-10.555-13.812-14.75c-3.833-12-0.25-33-0.25-33s-12.666-15.166,9.5-50.5c11.917-18.082,36.334-40,42.823-47.1
		c0.177,5.934-3.073,9.684-1.323,13.6c3.5-3,53-31,66-30.5c-12.629,11.75-23.5,17-23.5,17s67.668-29,88-17.666
		c-18.942,5-24,8.666-30.666,10.666c7.5,0,53.166-6.832,63.666,24.668c-7.666-5.418-10.25-6-19.5-4.5
		c16.496,2.471,29.08,38.779,29.5,48.66c-2.672-2.863-2.342-4.256-10.467-7.504c8.75,11.373,18.842,43.301,13.467,73.176
		c-1.967,0.062-2-1.166-6,1c-2.584,4.5-4.918,6.25-12,13.834c-0.971,0.795-1.75,0.666-1.057-3.006
		c3.973-8.994,2.389-27.994-0.777-39.578c1.502-7.75-16.166-36.082-22.997-33.514c-4.415-3.391-26.835-31.236-49.669-32.736
		c3.667,3.168,4.5,3.834,6,6.5c-12-6.832-43.666-6.332-65.5,2.5c5-0.166,6.938,0.125,9.375,0.688
		c-21.625,3.938-40.312,8.688-56,27.812c2.5,15,0.499,15.674,2.875,23.25c-6-5.875-6.75-13.125-11.25,14.25
		C-68.634-66.648-69.822-51.898-71.509-39.586z"/>
	<ellipse display="inline" fill="#33302E" stroke="#2D2624" stroke-miterlimit="10" cx="23.928" cy="18.164" rx="11" ry="2.5"/>
	<path display="inline" fill="#33302E" stroke="#2D2624" stroke-miterlimit="10" d="M54.928,41.664c0,4.971-13.599,9-30.375,9
		c-16.775,0-33.875-4.029-33.875-9s17.1-9,33.875-9C41.33,32.664,54.928,36.693,54.928,41.664z"/>
</g>
<g id="eyes" display="none">
	<path id="l_1_" display="inline" fill="none" stroke="#2D2624" stroke-miterlimit="10" d="M-37.572-64.836c0,0,19.5,20,35-2.5"/>
	<path id="r_1_" display="inline" fill="none" stroke="#2D2624" stroke-miterlimit="10" d="M91.184-65.357
		c0,0-18.658,20.789-35.073-1.053"/>
	<path display="inline" fill="#2D2624" d="M-47.492-101.066l-0.492-0.871c0.315-0.178,7.751-4.371,10.283-5.047l0.258,0.965
		C-39.853-105.375-47.416-101.109-47.492-101.066z"/>
	<path display="inline" fill="#2D2624" d="M99.904-98.154c-3.922-4.041-10.943-5.367-11.014-5.381l0.18-0.982
		c0.301,0.055,7.403,1.393,11.551,5.668L99.904-98.154z"/>
	<g>
		<path display="inline" fill="#8C2626" stroke="#471A1A" stroke-miterlimit="10" d="M243.002-628.013
			c0.463-0.072,0.959-0.123,1.494-0.152c3.255-0.182,7.416,2.181,8.736,7.737l0.289,1.872c0.412,5.45-2.629,12.717-13.222,22.883
			c-13.165-6.499-18.254-12.512-19.505-17.832l-0.289-1.872c-0.417-5.695,2.838-9.203,5.995-10.01
			c0.52-0.134,1.008-0.234,1.471-0.306c3.704-0.572,5.729,0.755,8.138,2.865C237.768-625.566,239.298-627.442,243.002-628.013"/>
	</g>
	<g>
		<path display="inline" fill="#8C2626" stroke="#471A1A" stroke-miterlimit="10" d="M321.023-628.013
			c3.704,0.571,5.234,2.447,6.894,5.185c2.41-2.11,4.435-3.437,8.139-2.865c0.463,0.071,0.951,0.172,1.471,0.306
			c3.157,0.807,6.412,4.315,5.995,10.01l-0.289,1.872c-1.251,5.319-6.341,11.333-19.505,17.832
			c-10.594-10.166-13.635-17.433-13.223-22.883l0.289-1.872c1.319-5.556,5.48-7.919,8.735-7.737
			C320.063-628.136,320.559-628.085,321.023-628.013"/>
	</g>
</g>
<g id="glasses" display="none">
	<path id="l_x5F_frame" display="inline" fill="#2D2624" d="M10.308-66.557l-2.04-18.75l-60.56,6.572l0.49,4.529l0.17,1.57
		l3.22,29.609l60.561-6.58L10.308-66.557z M-50.912-77.625l58.08-6.301l3.6,33.221l-58.08,6.301L-50.912-77.625z"/>
	<path id="r_x5F_frame" display="inline" fill="#2D2624" d="M101.938-43.27l-60.561-6.572l3.875-35.707l60.561,6.572L101.938-43.27z
		 M42.755-50.949l58.075,6.303l3.605-33.223L46.36-84.17L42.755-50.949z"/>
	<path id="nose_x5F_bridge" display="inline" fill="#2D2624" d="M9.783-65.201l-0.93-1.77c7.801-4.096,27.042-5.857,36.021-0.301
		l-1.053,1.701C35.527-70.705,17.013-68.994,9.783-65.201z"/>
	<path id="l_x5F_earpiece" display="inline" fill="#2D2624" d="M-51.631-72.635c-2.53,1.25-23.67,11.75-32.21,20.27l-0.7-1.35
		c9.16-9.141,32.49-20.461,32.72-20.57l0.021,0.08L-51.631-72.635z"/>
	<path id="r_x5F_earpiece" display="inline" fill="#2D2624" d="M138.862-56.939c-6.451-6.887-34.631-16.684-34.906-16.799
		l0.779-1.842c1.143,0.482,28.848,10.078,35.586,17.273L138.862-56.939z"/>
</g>
<g id="mouth">
	<path id="smile" fill="none" stroke="#2D2624" stroke-miterlimit="10" d="M48.957,0.29C39.716,13.228,9.352,12.561,0.375,2.402"/>
	<circle id="open_x5F_mouth" display="none" fill="#2D2624" cx="25" cy="8.016" r="4.649"/>
</g>
<g id="pants" display="none">
	<path display="inline" fill="#2D405B" stroke="#1C2530" stroke-miterlimit="10" d="M-26.072,203.164
		c-0.083-6.834,0.531-16.193,3.834-24.166c14-2.666,86.416-4.084,94.666-2.084c1.583,11.084,1,17.918,0,29.25
		c-9.5-2.582-16.833-2.666-26.688-0.924c0.334-5.418,1.188-10.576,1.188-10.576s-32.75-2.084-49.14-0.971
		c-0.667,3.584-0.86,5.971-0.61,8.971C-12.322,201.998-18.572,201.58-26.072,203.164z"/>
</g>
<g id="shoes" display="none">
	<path display="inline" fill="#54585B" stroke="#373A3D" stroke-miterlimit="10" d="M-36.738,238.498H0.928c0,0,3.5-16.02-9-16
		c-7.666-0.02-10.666-0.02-18.007-0.02C-35.905,222.479-37.738,230.488-36.738,238.498z"/>
	<path display="inline" fill="#54585B" stroke="#373A3D" stroke-miterlimit="10" d="M77.137,238.498H39.471c0,0-3.5-16.02,9-16
		c7.666-0.02,10.666-0.02,18.007-0.02C76.305,222.479,78.137,230.488,77.137,238.498z"/>
</g>
<g id="bangles" display="none">
	<path display="inline" fill="#2D2624" d="M-26.819,171.969c-8.833-5.01-23.186-5.799-23.329-5.807l0.152-2.996
		c0.616,0.031,15.2,0.83,24.657,6.193L-26.819,171.969z"/>
	<path display="inline" fill="#2D2624" d="M-26.819,166.969c-8.833-5.01-23.186-5.799-23.329-5.807l0.152-2.996
		c0.616,0.031,15.2,0.83,24.657,6.193L-26.819,166.969z"/>
	<path display="inline" fill="#2D2624" d="M-26.819,161.969c-8.833-5.01-23.186-5.799-23.329-5.807l0.152-2.996
		c0.616,0.031,15.2,0.83,24.657,6.193L-26.819,161.969z"/>
</g>
<g id="shirt_1_" display="none">
	<path id="shirt" display="inline" fill="#66302A" stroke="#3A201E" stroke-miterlimit="10" d="M-41.072,56.664l33.334-4
		c0,0,37.834,18.5,64,0c9.166,0.301,32.333,2.5,32.333,2.5l11.833,61.334l-20.167,4.834c0,0-5.658,44.754-7.666,62.832
		c-29.25-5.416-73.167-5.498-100.667,2.5c-1.666-11.998-5.833-63.166-5.833-63.166l-18-6.166L-41.072,56.664z"/>
	<path display="inline" fill="#5E2D2D" d="M26.218,67.916c-16.468,0-33.029-5.689-42.614-13.871l0.649-0.76
		c17.339,14.801,57.863,21.336,78.314,0.033l0.721,0.693C53.786,63.91,40.035,67.916,26.218,67.916z"/>
	<path display="inline" fill="none" d="M-20.572,129.164c25.75-15.666,63.5-15.666,85.75,0"/>
	<text transform="matrix(0.9542 -0.2993 0.2993 0.9542 -17.8989 126.0332)" display="inline"><tspan x="0" y="0" fill="#A37911" font-family="'FineCollege'" font-size="45">U</tspan><tspan x="28.114" y="-0.264" fill="#A37911" font-family="'FineCollege'" font-size="45" rotate="17.596">S</tspan><tspan x="54.813" y="7.961" fill="#A37911" font-family="'FineCollege'" font-size="45" rotate="35.638">C</tspan></text>
</g>
</svg>
