<?xml version="1.0" encoding="utf-8"?>
<!-- Generator: Adobe Illustrator 16.0.0, SVG Export Plug-In . SVG Version: 6.00 Build 0)  -->
<!DOCTYPE svg PUBLIC "-//W3C//DTD SVG 1.1//EN" "http://www.w3.org/Graphics/SVG/1.1/DTD/svg11.dtd">
<svg version="1.1" xmlns="http://www.w3.org/2000/svg" xmlns:xlink="http://www.w3.org/1999/xlink" x="0px" y="0px" width="600px"
	 height="310.523px" viewBox="0 0 600 310.523" enable-background="new 0 0 600 310.523" xml:space="preserve">
<g id="ref" display="none">
	<g display="inline">
		<image overflow="visible" width="600" height="962" xlink:href="../Sunny_SF.jpg"  transform="matrix(1 0 0 1 0 -318.0298)">
		</image>
	</g>
</g>
<g id="clouds" display="none">
	<path display="inline" fill="#FAF7EE" d="M558.729,7c-0.511-7.82-7.011-14-14.96-14h-1c-6.95,0-12.79,4.729-14.5,11.15
		c-1.7-6.421-7.54-11.15-14.5-11.15h-1c-6.95,0-12.79,4.729-14.5,11.15c-1.7-6.421-7.54-11.15-14.5-11.15h-1
		c-7.939,0-14.45,6.18-14.96,14H558.729z"/>
	<path display="inline" fill="#FAF7EE" d="M286.46-64.998c-0.511-7.82-7.011-14-14.96-14h-1c-6.95,0-12.79,4.729-14.5,11.15
		c-1.7-6.421-7.54-11.15-14.5-11.15h-1c-6.95,0-12.79,4.729-14.5,11.15c-1.7-6.421-7.54-11.15-14.5-11.15h-1
		c-7.939,0-14.45,6.18-14.96,14H286.46z"/>
	<path display="inline" fill="#FAF7EE" d="M70.555-8.027l-1.23-3.48c-0.06,0.211-0.12,0.421-0.18,0.631
		c-1.7-6.42-7.54-11.15-14.5-11.15h-1c-6.95,0-12.79,4.73-14.5,11.15c-1.7-6.42-7.54-11.15-14.5-11.15h-1
		c-7.94,0-14.45,6.18-14.96,14H70.555z"/>
</g>
<g id="bridge">
	<g id="bridge_x5F_l1">
		<g id="Layer_5">
			<polyline fill="#D9714B" points="6.38,165.18 6.38,180.97 3.62,180.97 3.62,166.42 			"/>
			<polyline fill="#D9714B" points="12.38,162.31 12.38,180.97 9.62,180.97 9.62,163.661 			"/>
			<polyline fill="#D9714B" points="18.38,159.15 18.38,180.97 15.62,180.97 15.62,160.64 			"/>
			<polyline fill="#D9714B" points="24.38,155.7 24.38,180.97 21.62,180.97 21.62,157.33 			"/>
			<polyline fill="#D9714B" points="30.38,151.94 30.38,180.97 27.62,180.97 27.62,153.71 			"/>
			<polyline fill="#D9714B" points="36.38,147.83 36.38,180.97 33.62,180.97 33.62,149.76 			"/>
			<polyline fill="#D9714B" points="42.38,143.35 42.38,180.97 39.62,180.97 39.62,145.46 			"/>
			<polyline fill="#D9714B" points="48.38,138.48 48.38,180.97 45.62,180.97 45.62,140.77 			"/>
			<polyline fill="#D9714B" points="54.38,133.16 54.38,180.97 51.62,180.97 51.62,135.66 			"/>
			<polyline fill="#D9714B" points="60.38,127.33 60.38,180.97 57.62,180.97 57.62,130.08 			"/>
			<polyline fill="#D9714B" points="66.38,120.92 66.38,180.97 63.62,180.97 63.62,123.95 			"/>
			<polyline fill="#D9714B" points="72.38,113.86 72.38,180.97 69.62,180.97 69.62,117.2 			"/>
			<polyline fill="#D9714B" points="78.38,105.97 78.38,180.97 75.62,180.97 75.62,109.7 			"/>
			<polyline fill="#D9714B" points="84.38,97.08 84.38,180.97 81.62,180.97 81.62,101.31 			"/>
			<polyline fill="#D9714B" points="90.38,86.88 90.38,180.97 87.62,180.97 87.62,91.77 			"/>
			<polyline fill="#D9714B" points="96.38,74.84 96.38,180.97 93.62,180.97 93.62,80.66 			"/>
			<polyline fill="#D9714B" points="102.38,59.78 102.38,180.97 99.62,180.97 99.62,67.18 			"/>
			<polyline fill="#D9714B" points="107.47,42.3 108.38,42.3 108.38,180.97 105.62,180.97 105.62,49.46 			"/>
		</g>
		<path fill="none" stroke="#D9714B" stroke-miterlimit="10" d="M-68.629,181.169c24.354,0,47.586-4.805,68.799-13.52
			C66.11,140.563,112.541,75.706,112.541,0"/>
		<rect x="110.951" fill="#D9714B" width="4.972" height="310.521"/>
		<rect x="-68.629" y="179.033" fill="#D9714B" width="183.629" height="9.375"/>
	</g>
	<g id="bridge_x5F_r1">
		<g id="Layer_5_copy">
			<polyline fill="#D9714B" points="228.304,166.42 228.304,180.97 225.544,180.97 225.544,165.18 			"/>
			<polyline fill="#D9714B" points="222.304,163.661 222.304,180.97 219.544,180.97 219.544,162.31 			"/>
			<polyline fill="#D9714B" points="216.304,160.64 216.304,180.97 213.544,180.97 213.544,159.15 			"/>
			<polyline fill="#D9714B" points="210.304,157.33 210.304,180.97 207.544,180.97 207.544,155.7 			"/>
			<polyline fill="#D9714B" points="204.304,153.71 204.304,180.97 201.544,180.97 201.544,151.94 			"/>
			<polyline fill="#D9714B" points="198.304,149.76 198.304,180.97 195.544,180.97 195.544,147.83 			"/>
			<polyline fill="#D9714B" points="192.304,145.46 192.304,180.97 189.544,180.97 189.544,143.35 			"/>
			<polyline fill="#D9714B" points="186.304,140.77 186.304,180.97 183.544,180.97 183.544,138.48 			"/>
			<polyline fill="#D9714B" points="180.304,135.66 180.304,180.97 177.544,180.97 177.544,133.16 			"/>
			<polyline fill="#D9714B" points="174.304,130.08 174.304,180.97 171.544,180.97 171.544,127.33 			"/>
			<polyline fill="#D9714B" points="168.304,123.95 168.304,180.97 165.544,180.97 165.544,120.92 			"/>
			<polyline fill="#D9714B" points="162.304,117.2 162.304,180.97 159.544,180.97 159.544,113.86 			"/>
			<polyline fill="#D9714B" points="156.304,109.7 156.304,180.97 153.544,180.97 153.544,105.97 			"/>
			<polyline fill="#D9714B" points="150.304,101.31 150.304,180.97 147.544,180.97 147.544,97.08 			"/>
			<polyline fill="#D9714B" points="144.304,91.77 144.304,180.97 141.544,180.97 141.544,86.88 			"/>
			<polyline fill="#D9714B" points="138.304,80.66 138.304,180.97 135.544,180.97 135.544,74.84 			"/>
			<polyline fill="#D9714B" points="132.304,67.18 132.304,180.97 129.544,180.97 129.544,59.78 			"/>
			<polyline fill="#D9714B" points="126.304,49.46 126.304,180.97 123.544,180.97 123.544,42.3 124.454,42.3 			"/>
			<polyline fill="#D9714B" points="234.76,168.576 234.76,183.125 232,183.125 232,167.335 			"/>
			<polyline fill="#D9714B" points="241,171.378 241,185.928 238.24,185.928 238.24,170.138 			"/>
			<polyline fill="#D9714B" points="247.093,173.378 247.093,187.928 244.333,187.928 244.333,172.138 			"/>
			<polyline fill="#D9714B" points="253.427,175.515 253.427,186.065 250.667,186.065 250.667,174.275 			"/>
			<polyline fill="#D9714B" points="259.667,176.515 259.667,187.065 256.907,187.065 256.907,175.275 			"/>
		</g>
		<path fill="none" stroke="#D9714B" stroke-miterlimit="10" d="M300.553,181.169c-24.354,0-47.586-4.805-68.799-13.52
			C165.814,140.563,119.383,75.706,119.383,0"/>
		<rect x="116" fill="#D9714B" width="4.973" height="310.521"/>
		<rect x="116.924" y="179.033" fill="#D9714B" width="183.629" height="9.375"/>
	</g>
	<g id="bridge_x5F_l2">
		<g id="Layer_5_copy_2">
			<polyline fill="#D9714B" points="375.422,165.182 375.422,180.972 372.662,180.972 372.662,166.422 			"/>
			<polyline fill="#D9714B" points="381.422,162.312 381.422,180.972 378.662,180.972 378.662,163.663 			"/>
			<polyline fill="#D9714B" points="387.422,159.152 387.422,180.972 384.662,180.972 384.662,160.642 			"/>
			<polyline fill="#D9714B" points="393.422,155.702 393.422,180.972 390.662,180.972 390.662,157.332 			"/>
			<polyline fill="#D9714B" points="399.422,151.942 399.422,180.972 396.662,180.972 396.662,153.712 			"/>
			<polyline fill="#D9714B" points="405.422,147.832 405.422,180.972 402.662,180.972 402.662,149.762 			"/>
			<polyline fill="#D9714B" points="411.422,143.352 411.422,180.972 408.662,180.972 408.662,145.462 			"/>
			<polyline fill="#D9714B" points="417.422,138.482 417.422,180.972 414.662,180.972 414.662,140.772 			"/>
			<polyline fill="#D9714B" points="423.422,133.162 423.422,180.972 420.662,180.972 420.662,135.662 			"/>
			<polyline fill="#D9714B" points="429.422,127.332 429.422,180.972 426.662,180.972 426.662,130.082 			"/>
			<polyline fill="#D9714B" points="435.422,120.922 435.422,180.972 432.662,180.972 432.662,123.952 			"/>
			<polyline fill="#D9714B" points="441.422,113.862 441.422,180.972 438.662,180.972 438.662,117.202 			"/>
			<polyline fill="#D9714B" points="447.422,105.972 447.422,180.972 444.662,180.972 444.662,109.702 			"/>
			<polyline fill="#D9714B" points="453.422,97.082 453.422,180.972 450.662,180.972 450.662,101.312 			"/>
			<polyline fill="#D9714B" points="459.422,86.882 459.422,180.972 456.662,180.972 456.662,91.772 			"/>
			<polyline fill="#D9714B" points="465.422,74.842 465.422,180.972 462.662,180.972 462.662,80.662 			"/>
			<polyline fill="#D9714B" points="471.422,59.782 471.422,180.972 468.662,180.972 468.662,67.182 			"/>
			<polyline fill="#D9714B" points="476.512,42.302 477.422,42.302 477.422,180.972 474.662,180.972 474.662,49.462 			"/>
			<polyline fill="#D9714B" points="368.966,167.337 368.966,183.127 366.206,183.127 366.206,168.578 			"/>
			<polyline fill="#D9714B" points="362.726,170.14 362.726,185.93 359.966,185.93 359.966,171.38 			"/>
			<polyline fill="#D9714B" points="356.633,172.14 356.633,187.93 353.873,187.93 353.873,173.38 			"/>
			<polyline fill="#D9714B" points="350.299,174.277 350.299,186.067 347.539,186.067 347.539,175.517 			"/>
			<polyline fill="#D9714B" points="344.059,175.277 344.059,187.067 341.299,187.067 341.299,176.517 			"/>
		</g>
		<path fill="none" stroke="#D9714B" stroke-miterlimit="10" d="M300.413,181.171c24.354,0,47.587-4.805,68.8-13.52
			c65.939-27.087,112.37-91.944,112.37-167.65"/>
		<rect x="479.993" y="0.002" fill="#D9714B" width="4.973" height="310.521"/>
		<rect x="300.413" y="179.035" fill="#D9714B" width="183.629" height="9.375"/>
	</g>
	<g id="bridge_x5F_r2">
		<g id="Layer_5_copy_3">
			<polyline fill="#D9714B" points="597.27,166.422 597.27,180.972 594.51,180.972 594.51,165.182 			"/>
			<polyline fill="#D9714B" points="591.27,163.663 591.27,180.972 588.51,180.972 588.51,162.312 			"/>
			<polyline fill="#D9714B" points="585.27,160.642 585.27,180.972 582.51,180.972 582.51,159.152 			"/>
			<polyline fill="#D9714B" points="579.27,157.332 579.27,180.972 576.51,180.972 576.51,155.702 			"/>
			<polyline fill="#D9714B" points="573.27,153.712 573.27,180.972 570.51,180.972 570.51,151.942 			"/>
			<polyline fill="#D9714B" points="567.27,149.762 567.27,180.972 564.51,180.972 564.51,147.832 			"/>
			<polyline fill="#D9714B" points="561.27,145.462 561.27,180.972 558.51,180.972 558.51,143.352 			"/>
			<polyline fill="#D9714B" points="555.27,140.772 555.27,180.972 552.51,180.972 552.51,138.482 			"/>
			<polyline fill="#D9714B" points="549.27,135.662 549.27,180.972 546.51,180.972 546.51,133.162 			"/>
			<polyline fill="#D9714B" points="543.27,130.082 543.27,180.972 540.51,180.972 540.51,127.332 			"/>
			<polyline fill="#D9714B" points="537.27,123.952 537.27,180.972 534.51,180.972 534.51,120.922 			"/>
			<polyline fill="#D9714B" points="531.27,117.202 531.27,180.972 528.51,180.972 528.51,113.862 			"/>
			<polyline fill="#D9714B" points="525.27,109.702 525.27,180.972 522.51,180.972 522.51,105.972 			"/>
			<polyline fill="#D9714B" points="519.27,101.312 519.27,180.972 516.51,180.972 516.51,97.082 			"/>
			<polyline fill="#D9714B" points="513.27,91.772 513.27,180.972 510.51,180.972 510.51,86.882 			"/>
			<polyline fill="#D9714B" points="507.27,80.662 507.27,180.972 504.51,180.972 504.51,74.842 			"/>
			<polyline fill="#D9714B" points="501.27,67.182 501.27,180.972 498.51,180.972 498.51,59.782 			"/>
			<polyline fill="#D9714B" points="495.27,49.462 495.27,180.972 492.51,180.972 492.51,42.302 493.42,42.302 			"/>
			<polyline fill="#D9714B" points="603.726,168.578 603.726,183.127 600.966,183.127 600.966,167.337 			"/>
			<polyline fill="#D9714B" points="609.966,171.38 609.966,185.93 607.206,185.93 607.206,170.14 			"/>
			<polyline fill="#D9714B" points="616.059,173.38 616.059,187.93 613.299,187.93 613.299,172.14 			"/>
			<polyline fill="#D9714B" points="622.393,175.517 622.393,186.067 619.633,186.067 619.633,174.277 			"/>
			<polyline fill="#D9714B" points="628.633,176.517 628.633,187.067 625.873,187.067 625.873,175.277 			"/>
		</g>
		<path fill="none" stroke="#D9714B" stroke-miterlimit="10" d="M669.519,181.171c-24.354,0-47.587-4.805-68.8-13.52
			c-65.939-27.087-112.37-91.944-112.37-167.65"/>
		<rect x="484.966" y="0.002" fill="#D9714B" width="4.973" height="310.521"/>
		<rect x="485.89" y="179.035" fill="#D9714B" width="183.629" height="9.375"/>
	</g>
</g>
<g id="water" display="none">
	<path display="inline" fill="#0BB48A" d="M600,305.97v163H0v-163h0.5c6.95,0,12.8-4.73,14.5-11.15c1.7,6.42,7.55,11.15,14.5,11.15
		h1c6.95,0,12.8-4.73,14.5-11.15c1.7,6.42,7.55,11.15,14.5,11.15h1c6.95,0,12.8-4.73,14.5-11.15c1.7,6.42,7.55,11.15,14.5,11.15h1
		c6.95,0,12.8-4.73,14.5-11.15c1.7,6.42,7.55,11.15,14.5,11.15h1c6.95,0,12.8-4.73,14.5-11.15c1.7,6.42,7.55,11.15,14.5,11.15h1
		c6.95,0,12.8-4.73,14.5-11.15c1.7,6.42,7.55,11.15,14.5,11.15h1c6.95,0,12.8-4.73,14.5-11.15c1.7,6.42,7.55,11.15,14.5,11.15h1
		c6.95,0,12.8-4.73,14.5-11.15c1.7,6.42,7.55,11.15,14.5,11.15h1c6.95,0,12.8-4.73,14.5-11.15c1.7,6.42,7.55,11.15,14.5,11.15h1
		c6.95,0,12.8-4.73,14.5-11.15c1.7,6.42,7.55,11.15,14.5,11.15h1c6.95,0,12.8-4.73,14.5-11.15c1.7,6.42,7.55,11.15,14.5,11.15h1
		c6.95,0,12.8-4.73,14.5-11.15c1.7,6.42,7.55,11.15,14.5,11.15h1c6.95,0,12.8-4.73,14.5-11.15c1.7,6.42,7.55,11.15,14.5,11.15h1
		c6.95,0,12.8-4.73,14.5-11.15c1.7,6.42,7.55,11.15,14.5,11.15h1c6.95,0,12.8-4.73,14.5-11.15c1.7,6.42,7.55,11.15,14.5,11.15h1
		c6.95,0,12.8-4.73,14.5-11.15c1.7,6.42,7.55,11.15,14.5,11.15h1c6.95,0,12.8-4.73,14.5-11.15c1.7,6.42,7.55,11.15,14.5,11.15h1
		c6.95,0,12.8-4.73,14.5-11.15c1.7,6.42,7.55,11.15,14.5,11.15h1c6.95,0,12.8-4.73,14.5-11.15c1.7,6.42,7.55,11.15,14.5,11.15h1
		c6.95,0,12.8-4.73,14.5-11.15c1.7,6.42,7.55,11.15,14.5,11.15H600z"/>
	<path display="inline" fill="#90D9C9" d="M189.29,359.64c-0.51,7.82-7.01,14-14.96,14h-1c-6.95,0-12.79-4.729-14.5-11.15
		c-1.7,6.421-7.54,11.15-14.5,11.15h-1c-6.95,0-12.79-4.729-14.5-11.15c-1.7,6.421-7.54,11.15-14.5,11.15h-1
		c-7.94,0-14.45-6.18-14.96-14H189.29z"/>
	<path display="inline" fill="#90D9C9" d="M444.91,399.97l-1.23,3.48c-0.06-0.211-0.12-0.421-0.18-0.631
		c-1.7,6.42-7.54,11.15-14.5,11.15h-1c-6.95,0-12.79-4.73-14.5-11.15c-1.7,6.42-7.54,11.15-14.5,11.15h-1
		c-7.94,0-14.45-6.18-14.96-14H444.91z"/>
</g>
</svg>
