<?xml version="1.0" encoding="utf-8"?>
<!-- Generator: Adobe Illustrator 16.0.0, SVG Export Plug-In . SVG Version: 6.00 Build 0)  -->
<!DOCTYPE svg PUBLIC "-//W3C//DTD SVG 1.1//EN" "http://www.w3.org/Graphics/SVG/1.1/DTD/svg11.dtd">
<svg version="1.1" xmlns="http://www.w3.org/2000/svg" xmlns:xlink="http://www.w3.org/1999/xlink" x="0px" y="0px" width="600px"
	 height="85.998px" viewBox="0 0 600 85.998" enable-background="new 0 0 600 85.998" xml:space="preserve">
<g id="ref" display="none">
	<g display="inline">
		<image overflow="visible" width="600" height="962" xlink:href="../Sunny_SF.jpg"  transform="matrix(1 0 0 1 0 -239.0317)">
		</image>
	</g>
</g>
<g id="clouds">
	<path fill="#FAF7EE" d="M558.729,85.998c-0.511-7.82-7.011-14-14.96-14h-1c-6.95,0-12.79,4.729-14.5,11.15
		c-1.7-6.421-7.54-11.15-14.5-11.15h-1c-6.95,0-12.79,4.729-14.5,11.15c-1.7-6.421-7.54-11.15-14.5-11.15h-1
		c-7.939,0-14.45,6.18-14.96,14H558.729z"/>
	<path fill="#FAF7EE" d="M286.46,14c-0.511-7.82-7.011-14-14.96-14h-1c-6.95,0-12.79,4.729-14.5,11.15C254.3,4.729,248.46,0,241.5,0
		h-1c-6.95,0-12.79,4.729-14.5,11.15C224.3,4.729,218.46,0,211.5,0h-1c-7.939,0-14.45,6.18-14.96,14H286.46z"/>
	<path fill="#FAF7EE" d="M70.555,70.971l-1.23-3.48c-0.06,0.211-0.12,0.421-0.18,0.631c-1.7-6.42-7.54-11.15-14.5-11.15h-1
		c-6.95,0-12.79,4.73-14.5,11.15c-1.7-6.42-7.54-11.15-14.5-11.15h-1c-7.94,0-14.45,6.18-14.96,14H70.555z"/>
</g>
<g id="bridge" display="none">
	<g id="bridge_x5F_l1" display="inline">
		<g id="Layer_5">
			<polyline fill="#D9714B" points="6.38,244.178 6.38,259.968 3.62,259.968 3.62,245.418 			"/>
			<polyline fill="#D9714B" points="12.38,241.308 12.38,259.968 9.62,259.968 9.62,242.659 			"/>
			<polyline fill="#D9714B" points="18.38,238.148 18.38,259.968 15.62,259.968 15.62,239.638 			"/>
			<polyline fill="#D9714B" points="24.38,234.698 24.38,259.968 21.62,259.968 21.62,236.328 			"/>
			<polyline fill="#D9714B" points="30.38,230.938 30.38,259.968 27.62,259.968 27.62,232.708 			"/>
			<polyline fill="#D9714B" points="36.38,226.828 36.38,259.968 33.62,259.968 33.62,228.758 			"/>
			<polyline fill="#D9714B" points="42.38,222.348 42.38,259.968 39.62,259.968 39.62,224.458 			"/>
			<polyline fill="#D9714B" points="48.38,217.478 48.38,259.968 45.62,259.968 45.62,219.768 			"/>
			<polyline fill="#D9714B" points="54.38,212.158 54.38,259.968 51.62,259.968 51.62,214.658 			"/>
			<polyline fill="#D9714B" points="60.38,206.328 60.38,259.968 57.62,259.968 57.62,209.078 			"/>
			<polyline fill="#D9714B" points="66.38,199.918 66.38,259.968 63.62,259.968 63.62,202.948 			"/>
			<polyline fill="#D9714B" points="72.38,192.858 72.38,259.968 69.62,259.968 69.62,196.198 			"/>
			<polyline fill="#D9714B" points="78.38,184.968 78.38,259.968 75.62,259.968 75.62,188.698 			"/>
			<polyline fill="#D9714B" points="84.38,176.078 84.38,259.968 81.62,259.968 81.62,180.308 			"/>
			<polyline fill="#D9714B" points="90.38,165.878 90.38,259.968 87.62,259.968 87.62,170.768 			"/>
			<polyline fill="#D9714B" points="96.38,153.838 96.38,259.968 93.62,259.968 93.62,159.658 			"/>
			<polyline fill="#D9714B" points="102.38,138.778 102.38,259.968 99.62,259.968 99.62,146.178 			"/>
			<polyline fill="#D9714B" points="107.47,121.298 108.38,121.298 108.38,259.968 105.62,259.968 105.62,128.458 			"/>
		</g>
		<path fill="none" stroke="#D9714B" stroke-miterlimit="10" d="M-68.629,260.167c24.354,0,47.586-4.805,68.799-13.52
			c65.939-27.087,112.371-91.944,112.371-167.65"/>
		<rect x="110.951" y="78.998" fill="#D9714B" width="4.972" height="310.521"/>
		<rect x="-68.629" y="258.031" fill="#D9714B" width="183.629" height="9.375"/>
	</g>
	<g id="bridge_x5F_r1" display="inline">
		<g id="Layer_5_copy">
			<polyline fill="#D9714B" points="228.304,245.418 228.304,259.968 225.544,259.968 225.544,244.178 			"/>
			<polyline fill="#D9714B" points="222.304,242.659 222.304,259.968 219.544,259.968 219.544,241.308 			"/>
			<polyline fill="#D9714B" points="216.304,239.638 216.304,259.968 213.544,259.968 213.544,238.148 			"/>
			<polyline fill="#D9714B" points="210.304,236.328 210.304,259.968 207.544,259.968 207.544,234.698 			"/>
			<polyline fill="#D9714B" points="204.304,232.708 204.304,259.968 201.544,259.968 201.544,230.938 			"/>
			<polyline fill="#D9714B" points="198.304,228.758 198.304,259.968 195.544,259.968 195.544,226.828 			"/>
			<polyline fill="#D9714B" points="192.304,224.458 192.304,259.968 189.544,259.968 189.544,222.348 			"/>
			<polyline fill="#D9714B" points="186.304,219.768 186.304,259.968 183.544,259.968 183.544,217.478 			"/>
			<polyline fill="#D9714B" points="180.304,214.658 180.304,259.968 177.544,259.968 177.544,212.158 			"/>
			<polyline fill="#D9714B" points="174.304,209.078 174.304,259.968 171.544,259.968 171.544,206.328 			"/>
			<polyline fill="#D9714B" points="168.304,202.948 168.304,259.968 165.544,259.968 165.544,199.918 			"/>
			<polyline fill="#D9714B" points="162.304,196.198 162.304,259.968 159.544,259.968 159.544,192.858 			"/>
			<polyline fill="#D9714B" points="156.304,188.698 156.304,259.968 153.544,259.968 153.544,184.968 			"/>
			<polyline fill="#D9714B" points="150.304,180.308 150.304,259.968 147.544,259.968 147.544,176.078 			"/>
			<polyline fill="#D9714B" points="144.304,170.768 144.304,259.968 141.544,259.968 141.544,165.878 			"/>
			<polyline fill="#D9714B" points="138.304,159.658 138.304,259.968 135.544,259.968 135.544,153.838 			"/>
			<polyline fill="#D9714B" points="132.304,146.178 132.304,259.968 129.544,259.968 129.544,138.778 			"/>
			<polyline fill="#D9714B" points="126.304,128.458 126.304,259.968 123.544,259.968 123.544,121.298 124.454,121.298 			"/>
			<polyline fill="#D9714B" points="234.76,247.574 234.76,262.124 232,262.124 232,246.333 			"/>
			<polyline fill="#D9714B" points="241,250.376 241,264.926 238.24,264.926 238.24,249.136 			"/>
			<polyline fill="#D9714B" points="247.093,252.376 247.093,266.926 244.333,266.926 244.333,251.136 			"/>
			<polyline fill="#D9714B" points="253.427,254.513 253.427,265.063 250.667,265.063 250.667,253.273 			"/>
			<polyline fill="#D9714B" points="259.667,255.513 259.667,266.063 256.907,266.063 256.907,254.273 			"/>
		</g>
		<path fill="none" stroke="#D9714B" stroke-miterlimit="10" d="M300.553,260.167c-24.354,0-47.586-4.805-68.799-13.52
			c-65.939-27.087-112.371-91.944-112.371-167.65"/>
		<rect x="116" y="78.998" fill="#D9714B" width="4.973" height="310.521"/>
		<rect x="116.924" y="258.031" fill="#D9714B" width="183.629" height="9.375"/>
	</g>
	<g id="bridge_x5F_l2" display="inline">
		<g id="Layer_5_copy_2">
			<polyline fill="#D9714B" points="375.422,244.18 375.422,259.97 372.662,259.97 372.662,245.42 			"/>
			<polyline fill="#D9714B" points="381.422,241.31 381.422,259.97 378.662,259.97 378.662,242.661 			"/>
			<polyline fill="#D9714B" points="387.422,238.15 387.422,259.97 384.662,259.97 384.662,239.64 			"/>
			<polyline fill="#D9714B" points="393.422,234.7 393.422,259.97 390.662,259.97 390.662,236.33 			"/>
			<polyline fill="#D9714B" points="399.422,230.94 399.422,259.97 396.662,259.97 396.662,232.71 			"/>
			<polyline fill="#D9714B" points="405.422,226.83 405.422,259.97 402.662,259.97 402.662,228.76 			"/>
			<polyline fill="#D9714B" points="411.422,222.35 411.422,259.97 408.662,259.97 408.662,224.46 			"/>
			<polyline fill="#D9714B" points="417.422,217.48 417.422,259.97 414.662,259.97 414.662,219.77 			"/>
			<polyline fill="#D9714B" points="423.422,212.16 423.422,259.97 420.662,259.97 420.662,214.66 			"/>
			<polyline fill="#D9714B" points="429.422,206.33 429.422,259.97 426.662,259.97 426.662,209.08 			"/>
			<polyline fill="#D9714B" points="435.422,199.92 435.422,259.97 432.662,259.97 432.662,202.95 			"/>
			<polyline fill="#D9714B" points="441.422,192.86 441.422,259.97 438.662,259.97 438.662,196.2 			"/>
			<polyline fill="#D9714B" points="447.422,184.97 447.422,259.97 444.662,259.97 444.662,188.7 			"/>
			<polyline fill="#D9714B" points="453.422,176.08 453.422,259.97 450.662,259.97 450.662,180.31 			"/>
			<polyline fill="#D9714B" points="459.422,165.88 459.422,259.97 456.662,259.97 456.662,170.77 			"/>
			<polyline fill="#D9714B" points="465.422,153.84 465.422,259.97 462.662,259.97 462.662,159.66 			"/>
			<polyline fill="#D9714B" points="471.422,138.78 471.422,259.97 468.662,259.97 468.662,146.18 			"/>
			<polyline fill="#D9714B" points="476.512,121.3 477.422,121.3 477.422,259.97 474.662,259.97 474.662,128.46 			"/>
			<polyline fill="#D9714B" points="368.966,246.335 368.966,262.125 366.206,262.125 366.206,247.576 			"/>
			<polyline fill="#D9714B" points="362.726,249.138 362.726,264.928 359.966,264.928 359.966,250.378 			"/>
			<polyline fill="#D9714B" points="356.633,251.138 356.633,266.928 353.873,266.928 353.873,252.378 			"/>
			<polyline fill="#D9714B" points="350.299,253.275 350.299,265.065 347.539,265.065 347.539,254.515 			"/>
			<polyline fill="#D9714B" points="344.059,254.275 344.059,266.065 341.299,266.065 341.299,255.515 			"/>
		</g>
		<path fill="none" stroke="#D9714B" stroke-miterlimit="10" d="M300.413,260.169c24.354,0,47.587-4.805,68.8-13.52
			c65.939-27.087,112.37-91.944,112.37-167.65"/>
		<rect x="479.993" y="79" fill="#D9714B" width="4.973" height="310.521"/>
		<rect x="300.413" y="258.033" fill="#D9714B" width="183.629" height="9.375"/>
	</g>
	<g id="bridge_x5F_r2" display="inline">
		<g id="Layer_5_copy_3">
			<polyline fill="#D9714B" points="597.27,245.42 597.27,259.97 594.51,259.97 594.51,244.18 			"/>
			<polyline fill="#D9714B" points="591.27,242.661 591.27,259.97 588.51,259.97 588.51,241.31 			"/>
			<polyline fill="#D9714B" points="585.27,239.64 585.27,259.97 582.51,259.97 582.51,238.15 			"/>
			<polyline fill="#D9714B" points="579.27,236.33 579.27,259.97 576.51,259.97 576.51,234.7 			"/>
			<polyline fill="#D9714B" points="573.27,232.71 573.27,259.97 570.51,259.97 570.51,230.94 			"/>
			<polyline fill="#D9714B" points="567.27,228.76 567.27,259.97 564.51,259.97 564.51,226.83 			"/>
			<polyline fill="#D9714B" points="561.27,224.46 561.27,259.97 558.51,259.97 558.51,222.35 			"/>
			<polyline fill="#D9714B" points="555.27,219.77 555.27,259.97 552.51,259.97 552.51,217.48 			"/>
			<polyline fill="#D9714B" points="549.27,214.66 549.27,259.97 546.51,259.97 546.51,212.16 			"/>
			<polyline fill="#D9714B" points="543.27,209.08 543.27,259.97 540.51,259.97 540.51,206.33 			"/>
			<polyline fill="#D9714B" points="537.27,202.95 537.27,259.97 534.51,259.97 534.51,199.92 			"/>
			<polyline fill="#D9714B" points="531.27,196.2 531.27,259.97 528.51,259.97 528.51,192.86 			"/>
			<polyline fill="#D9714B" points="525.27,188.7 525.27,259.97 522.51,259.97 522.51,184.97 			"/>
			<polyline fill="#D9714B" points="519.27,180.31 519.27,259.97 516.51,259.97 516.51,176.08 			"/>
			<polyline fill="#D9714B" points="513.27,170.77 513.27,259.97 510.51,259.97 510.51,165.88 			"/>
			<polyline fill="#D9714B" points="507.27,159.66 507.27,259.97 504.51,259.97 504.51,153.84 			"/>
			<polyline fill="#D9714B" points="501.27,146.18 501.27,259.97 498.51,259.97 498.51,138.78 			"/>
			<polyline fill="#D9714B" points="495.27,128.46 495.27,259.97 492.51,259.97 492.51,121.3 493.42,121.3 			"/>
			<polyline fill="#D9714B" points="603.726,247.576 603.726,262.125 600.966,262.125 600.966,246.335 			"/>
			<polyline fill="#D9714B" points="609.966,250.378 609.966,264.928 607.206,264.928 607.206,249.138 			"/>
			<polyline fill="#D9714B" points="616.059,252.378 616.059,266.928 613.299,266.928 613.299,251.138 			"/>
			<polyline fill="#D9714B" points="622.393,254.515 622.393,265.065 619.633,265.065 619.633,253.275 			"/>
			<polyline fill="#D9714B" points="628.633,255.515 628.633,266.065 625.873,266.065 625.873,254.275 			"/>
		</g>
		<path fill="none" stroke="#D9714B" stroke-miterlimit="10" d="M669.519,260.169c-24.354,0-47.587-4.805-68.8-13.52
			c-65.939-27.087-112.37-91.944-112.37-167.65"/>
		<rect x="484.966" y="79" fill="#D9714B" width="4.973" height="310.521"/>
		<rect x="485.89" y="258.033" fill="#D9714B" width="183.629" height="9.375"/>
	</g>
</g>
<g id="water" display="none">
	<path display="inline" fill="#0BB48A" d="M600,384.968v163H0v-163h0.5c6.95,0,12.8-4.73,14.5-11.15c1.7,6.42,7.55,11.15,14.5,11.15
		h1c6.95,0,12.8-4.73,14.5-11.15c1.7,6.42,7.55,11.15,14.5,11.15h1c6.95,0,12.8-4.73,14.5-11.15c1.7,6.42,7.55,11.15,14.5,11.15h1
		c6.95,0,12.8-4.73,14.5-11.15c1.7,6.42,7.55,11.15,14.5,11.15h1c6.95,0,12.8-4.73,14.5-11.15c1.7,6.42,7.55,11.15,14.5,11.15h1
		c6.95,0,12.8-4.73,14.5-11.15c1.7,6.42,7.55,11.15,14.5,11.15h1c6.95,0,12.8-4.73,14.5-11.15c1.7,6.42,7.55,11.15,14.5,11.15h1
		c6.95,0,12.8-4.73,14.5-11.15c1.7,6.42,7.55,11.15,14.5,11.15h1c6.95,0,12.8-4.73,14.5-11.15c1.7,6.42,7.55,11.15,14.5,11.15h1
		c6.95,0,12.8-4.73,14.5-11.15c1.7,6.42,7.55,11.15,14.5,11.15h1c6.95,0,12.8-4.73,14.5-11.15c1.7,6.42,7.55,11.15,14.5,11.15h1
		c6.95,0,12.8-4.73,14.5-11.15c1.7,6.42,7.55,11.15,14.5,11.15h1c6.95,0,12.8-4.73,14.5-11.15c1.7,6.42,7.55,11.15,14.5,11.15h1
		c6.95,0,12.8-4.73,14.5-11.15c1.7,6.42,7.55,11.15,14.5,11.15h1c6.95,0,12.8-4.73,14.5-11.15c1.7,6.42,7.55,11.15,14.5,11.15h1
		c6.95,0,12.8-4.73,14.5-11.15c1.7,6.42,7.55,11.15,14.5,11.15h1c6.95,0,12.8-4.73,14.5-11.15c1.7,6.42,7.55,11.15,14.5,11.15h1
		c6.95,0,12.8-4.73,14.5-11.15c1.7,6.42,7.55,11.15,14.5,11.15h1c6.95,0,12.8-4.73,14.5-11.15c1.7,6.42,7.55,11.15,14.5,11.15h1
		c6.95,0,12.8-4.73,14.5-11.15c1.7,6.42,7.55,11.15,14.5,11.15H600z"/>
	<path display="inline" fill="#90D9C9" d="M189.29,438.638c-0.51,7.82-7.01,14-14.96,14h-1c-6.95,0-12.79-4.729-14.5-11.15
		c-1.7,6.421-7.54,11.15-14.5,11.15h-1c-6.95,0-12.79-4.729-14.5-11.15c-1.7,6.421-7.54,11.15-14.5,11.15h-1
		c-7.94,0-14.45-6.18-14.96-14H189.29z"/>
	<path display="inline" fill="#90D9C9" d="M444.91,478.968l-1.23,3.48c-0.06-0.211-0.12-0.421-0.18-0.631
		c-1.7,6.42-7.54,11.15-14.5,11.15h-1c-6.95,0-12.79-4.73-14.5-11.15c-1.7,6.42-7.54,11.15-14.5,11.15h-1
		c-7.94,0-14.45-6.18-14.96-14H444.91z"/>
</g>
</svg>
