<?xml version="1.0" encoding="utf-8"?>
<!-- Generator: Adobe Illustrator 16.0.0, SVG Export Plug-In . SVG Version: 6.00 Build 0)  -->
<!DOCTYPE svg PUBLIC "-//W3C//DTD SVG 1.1//EN" "http://www.w3.org/Graphics/SVG/1.1/DTD/svg11.dtd">
<svg version="1.1" id="Layer_1" xmlns="http://www.w3.org/2000/svg" xmlns:xlink="http://www.w3.org/1999/xlink" x="0px" y="0px"
	 width="325px" height="294.773px" viewBox="0 0 325 294.773" enable-background="new 0 0 325 294.773" xml:space="preserve">
<g id="ref" display="none">
</g>
<g id="base">
	<polyline fill="#C2887C" stroke="#935454" stroke-miterlimit="10" points="152.984,156.523 152.984,125.023 147,121.023 
		147,116.273 149.75,112.523 180.25,112.523 183.25,116.523 183.25,121.273 176.417,124.982 176.5,177.273 152.984,177.273 	"/>
	<path fill="#C2887C" stroke="#935454" stroke-miterlimit="10" d="M247,205.443v3.66l-7.33,1.5v46.5l-61.8,15.1
		c-24.886-101.763-47.537-1.312-45.16,8.37l-70.21-24.8v-55l-9-6h52l-8,5.5l-1,46.74h7v-62.24h16.17v29.17h4.66v-5.5l62.67-0.34
		l-13.33-27.66h32.66l-16.33,27.5l3.33-0.17l-0.16,5.33h9.5v11.5h2.83v-14.16l-7-0.67v-4.33H247z"/>
	<rect x="144.5" y="105.713" fill="#C2887C" stroke="#935454" stroke-miterlimit="10" width="39.25" height="4.87"/>
</g>
<g id="roof">
	<path fill="#489490" stroke="#196E6E" stroke-miterlimit="10" d="M124.5,181.806c-9.748-0.787-8.873-0.732-11.834-0.733
		c-2.961,0-2.084-0.054-11.836,0.733c0,0,9.436-22.655,11.835-38.533C115.061,159.151,124.5,181.806,124.5,181.806z"/>
	<path fill="#489490" stroke="#196E6E" stroke-miterlimit="10" d="M205,177.048c-3.893-0.562-11.498-1.106-15.335-1.106
		c-3.836,0-10.265,0.343-15.335,1.106c0,0,12.227-26.955,15.335-43.049C192.77,150.093,205,177.048,205,177.048z"/>
	<path fill="#489490" stroke="#196E6E" stroke-miterlimit="10" d="M189.751,105.01c-5.001-1.737-19.091-4.735-25.461-4.737
		c-6.369,0-20.04,2.5-25.46,4.737c0,0,22.42-41.487,25.46-92.942C167.5,63.523,189.751,105.01,189.751,105.01z"/>
	<path fill="#489490" stroke="#196E6E" stroke-miterlimit="10" d="M106,191.773c-21.69-1.75-19.745-1.63-26.333-1.63
		c-6.589,0-4.637-0.12-26.337,1.63c0,0,21-22.67,26.34-58C85,169.104,106,191.773,106,191.773z"/>
	<path fill="#489490" stroke="#196E6E" stroke-miterlimit="10" d="M248.334,202.107c-21.689-1.75-19.745-1.63-26.334-1.63
		s-4.637-0.12-26.336,1.63c0,0,21-22.67,26.34-58C227.334,179.437,248.334,202.107,248.334,202.107z"/>
	<path fill="#489490" stroke="#196E6E" stroke-miterlimit="10" d="M151,204.523h-30.25c0,0,13.5-23,13.5-47.75H151"/>
	<path fill="#489490" stroke="#196E6E" stroke-miterlimit="10" d="M150.127,204.523h31.167c0,0-13.909-23-13.909-47.75h-17.258"/>
</g>
<g id="flags">
	<path fill="#E67575" stroke="#B04D4D" stroke-miterlimit="10" d="M79.665,123.167c0,1.939,0,4.49,0,5.918
		c14.157-0.103,3.929,1.836,16.958,1.836C88.951,128.676,93.579,124.595,79.665,123.167z"/>
	<path fill="#E67575" stroke="#B04D4D" stroke-miterlimit="10" d="M164.29,0.565c0,3.167,0,7.333,0,9.667
		c19.377-0.167,5.377,3,23.21,3C177,9.565,183.334,2.898,164.29,0.565z"/>
	<path fill="#E67575" stroke="#B04D4D" stroke-miterlimit="10" d="M190.227,123.854c0,1.938,0,4.489,0,5.918
		c14.158-0.104,3.931,1.836,16.959,1.836C199.514,129.364,204.141,125.283,190.227,123.854z"/>
</g>
<g id="Layer_6" display="none">
	<path display="inline" fill="#9C7CB8" d="M292.17,169.503c-0.01,1.04-0.02,1.601-0.02,1.601l-0.301,0.01c0,0-0.069-0.55-0.211-1.58
		c-0.119-1.03-0.34-2.53-0.68-4.43c-0.41-1.88-0.859-4.17-1.66-6.721c-0.77-2.55-1.81-5.359-3.21-8.3
		c-1.399-2.93-3.18-5.979-5.34-9.01c-2.17-3.02-4.739-6-7.59-8.93c-2.83-2.931-5.99-5.771-9.3-8.551
		c-3.312-2.789-6.83-5.47-10.352-8.17c-3.52-2.689-7.06-5.399-10.41-8.27c-3.33-2.88-6.488-5.92-9.05-9.33
		c-2.54-3.39-4.5-7.14-5.358-10.97c-0.9-3.82-0.86-7.58-0.312-10.91c0.53-3.34,1.49-6.28,2.479-8.811
		c0.979-2.54,2.07-4.649,2.949-6.38c0.94-1.71,1.69-3.04,2.24-3.92c0.36-0.609,0.61-1.03,0.74-1.229
		c0.09,0.04,0.189,0.069,0.29,0.09c0.04-0.05,0.05-0.08,0.05-0.08l-0.26-0.15c0,0-0.03,0.051-0.08,0.141
		c-7.4-2.45-10.74-10.04-7.471-17.521c0.939-2.14,2.32-4.06,4-5.67c-0.471-0.04-0.949-0.12-1.42-0.229
		c-4.83-1.17-7.109-5.87-5.09-10.49c2.021-4.63,7.569-7.43,12.399-6.26c4.83,1.159,7.11,5.859,5.09,10.489
		c-0.188,0.44-0.43,0.88-0.68,1.29c2.26-0.39,4.601-0.35,6.84,0.19c2.229,0.54,4.149,1.53,5.681,2.84
		c0.119-0.45,0.271-0.9,0.471-1.35c2.02-4.63,7.568-7.431,12.398-6.261s7.11,5.86,5.09,10.49c-2.01,4.62-7.568,7.43-12.398,6.26
		c-0.471-0.109-0.92-0.26-1.34-0.439c0.09,2.04-0.301,4.2-1.24,6.34c-3.439,7.88-12.891,12.65-21.12,10.67
		c-0.31-0.08-0.62-0.16-0.92-0.25c-0.101,0.18-0.34,0.63-0.72,1.3c-0.53,0.9-1.23,2.261-2.102,3.98
		c-0.81,1.75-1.818,3.87-2.699,6.41c-0.899,2.529-1.74,5.449-2.141,8.699c-0.43,3.24-0.34,6.83,0.641,10.41
		c0.939,3.59,2.851,7.08,5.369,10.261c2.53,3.189,5.66,6.069,9,8.81c3.352,2.729,6.92,5.33,10.512,7.93
		c3.6,2.59,7.209,5.2,10.688,7.9c3.479,2.689,6.761,5.57,9.771,8.55c2.939,3.04,5.601,6.2,7.729,9.47c2.17,3.25,3.88,6.54,5.16,9.69
		c1.29,3.15,2.13,6.16,2.71,8.84c0.59,2.68,0.83,5.061,1,7.01C292.12,166.923,292.2,168.454,292.17,169.503z"/>
	<path display="inline" fill="#F2727F" d="M123.37-2.066c-0.34,0.04-0.69,0.05-1.03,0.04c0.92,1.33,1.58,2.859,1.89,4.51
		c1.07,5.66-2.28,10.83-7.61,12.09c0,0,0.07,0.28,0.21,0.81c0.13,0.521,0.38,1.28,0.58,2.271c0.15,1.01,0.42,2.229,0.43,3.66
		c0.01,0.35,0.06,0.72,0.04,1.1c-0.03,0.38-0.05,0.771-0.08,1.17c-0.01,0.8-0.22,1.63-0.39,2.5c-0.44,1.7-1.11,3.54-2.25,5.23
		c-1.09,1.72-2.5,3.33-4.06,4.87s-3.27,3-4.92,4.54c-1.64,1.54-3.25,3.149-4.49,4.979c-1.24,1.82-2.05,3.87-2.22,5.98l-0.08,0.779
		l0.03,0.79c0.03,0.53,0,1.051,0.12,1.57c0.08,0.52,0.16,1.03,0.24,1.54c0.14,0.51,0.29,1.01,0.43,1.51l0.19,0.75l0.27,0.72
		c0.17,0.48,0.35,0.961,0.52,1.431c0.38,0.939,0.84,1.819,1.22,2.71c0.41,0.88,0.89,1.7,1.32,2.52c0.4,0.82,0.88,1.57,1.32,2.311
		c0.44,0.74,0.86,1.439,1.26,2.109c0.43,0.66,0.84,1.29,1.22,1.87c0.75,1.181,1.44,2.19,2.01,3.03c1.15,1.66,1.77,2.64,1.77,2.64
		l-0.15,0.12c0,0-0.81-0.83-2.17-2.33c-0.35-0.38-0.73-0.79-1.14-1.239c-0.39-0.48-0.8-0.99-1.25-1.54
		c-0.44-0.551-0.92-1.141-1.42-1.761c-0.49-0.63-0.97-1.319-1.47-2.029c-1.05-1.41-2.02-3.051-3.02-4.811
		c-0.46-0.91-0.96-1.83-1.37-2.819c-0.2-0.5-0.39-1.011-0.59-1.521l-0.3-0.78l-0.23-0.81c-0.14-0.55-0.28-1.101-0.42-1.66
		c-0.08-0.57-0.16-1.15-0.24-1.74c-0.11-0.569-0.07-1.18-0.07-1.779v-0.9l0.13-0.9c0.3-2.42,1.34-4.76,2.78-6.689
		c1.42-1.95,3.16-3.57,4.88-5.07c1.73-1.51,3.47-2.899,5.04-4.36c1.57-1.449,2.96-2.97,4.08-4.55c1.15-1.569,1.86-3.279,2.36-4.89
		c0.19-0.82,0.43-1.61,0.47-2.39c0.04-0.381,0.09-0.761,0.13-1.12c0.03-0.37,0-0.73,0.01-1.08c0.05-1.391-0.16-2.59-0.27-3.59
		c-0.15-0.99-0.37-1.761-0.48-2.29c-0.11-0.53-0.18-0.811-0.18-0.811c-0.33,0.07-0.67,0.13-1.01,0.17
		c-6.03,0.73-11.84-3.609-12.99-9.68c-0.32-1.65-0.25-3.271,0.13-4.75c-0.32,0.09-0.65,0.16-1,0.2c-3.53,0.42-6.95-2.12-7.62-5.69
		c-0.68-3.56,1.64-6.8,5.18-7.229c3.53-0.42,6.95,2.12,7.62,5.689c0.07,0.34,0.11,0.69,0.12,1.03c1.26-0.82,2.75-1.38,4.39-1.57
		c1.63-0.2,3.26-0.02,4.77,0.46c-0.11-0.319-0.2-0.66-0.27-1c-0.67-3.569,1.65-6.81,5.18-7.229c3.54-0.431,6.95,2.12,7.63,5.68
		C129.22-5.727,126.9-2.486,123.37-2.066z"/>
	<path display="inline" fill="#95CA57" d="M79.53,86.474c-1.39,3.81-5.51,6.5-9.21,5.989c-0.35-0.05-0.7-0.13-1.02-0.229
		c0.13,1.6-0.1,3.33-0.74,5.09c-2.26,6.18-8.93,10.69-14.94,10.29c0.01,0.1,0.09,0.53,0.19,1.22c0.06,0.391,0.12,0.88,0.16,1.46
		c0.05,0.58,0.11,1.25,0.11,2c0.04,1.5-0.03,3.34-0.52,5.4c-0.47,2.05-1.43,4.32-3.08,6.37c-1.64,2.06-3.93,3.84-6.55,5.25
		c-2.62,1.43-5.55,2.529-8.58,3.58c-3.03,1.029-6.18,2-9.3,3.12c-3.11,1.14-6.21,2.42-8.98,4.17c-2.76,1.75-5.15,3.989-6.73,6.689
		c-0.8,1.34-1.37,2.79-1.82,4.26c-0.24,0.721-0.37,1.48-0.55,2.221c-0.1,0.76-0.26,1.5-0.31,2.27c-0.32,3.01-0.19,6,0.1,8.83
		c0.32,2.83,0.81,5.51,1.33,7.97c0.29,1.23,0.55,2.41,0.83,3.521c0.3,1.12,0.58,2.18,0.84,3.17c0.55,1.99,1.07,3.71,1.49,5.14
		c0.41,1.431,0.81,2.53,1.02,3.29c0.23,0.771,0.36,1.181,0.36,1.181l-0.26,0.1c0,0-0.19-0.38-0.54-1.1
		c-0.36-0.71-0.88-1.771-1.49-3.131c-0.3-0.68-0.64-1.439-1.01-2.26c-0.34-0.84-0.7-1.75-1.09-2.71c-0.75-1.95-1.54-4.18-2.28-6.649
		c-0.72-2.48-1.39-5.221-1.84-8.181c-0.46-2.95-0.65-6.16-0.3-9.49c0.06-0.829,0.26-1.659,0.39-2.5c0.21-0.829,0.39-1.67,0.68-2.5
		c0.53-1.659,1.28-3.289,2.26-4.779c1.95-3.021,4.73-5.45,7.77-7.221c3.05-1.789,6.31-3.02,9.52-4.079
		c3.21-1.051,6.39-1.91,9.41-2.851c3.03-0.93,5.91-1.95,8.48-3.21c2.57-1.25,4.79-2.85,6.42-4.71c1.62-1.87,2.62-3.97,3.15-5.93
		c0.55-1.96,0.7-3.76,0.71-5.23c0.04-0.74,0-1.399-0.02-1.97s-0.06-1.06-0.11-1.45c-0.07-0.8-0.05-1.28-0.05-1.28
		c-0.18-0.01-0.37-0.029-0.55-0.06c-6.3-0.86-9.49-6.82-7.13-13.32c0.64-1.77,1.63-3.399,2.86-4.81c-0.37,0.01-0.73-0.01-1.09-0.061
		c-3.7-0.5-5.57-4-4.19-7.819c1.39-3.811,5.51-6.49,9.21-5.99c3.69,0.51,5.57,4.01,4.18,7.82c-0.13,0.37-0.29,0.739-0.48,1.08
		c1.71-0.5,3.48-0.67,5.19-0.431c1.71,0.23,3.2,0.851,4.4,1.74c0.07-0.36,0.18-0.729,0.31-1.1c1.38-3.811,5.51-6.49,9.2-5.99
		C79.04,79.164,80.91,82.664,79.53,86.474z"/>
</g>
<g id="cloud">
	<path fill="#DCF2F7" d="M22,274.773c0,0,42-50,110-14c54-18,87-23,142,14c0,0,33-9,51,20c-41,0-325,0-325,0S1,273.773,22,274.773z"
		/>
</g>
</svg>
