<?xml version="1.0" encoding="utf-8"?>
<!-- Generator: Adobe Illustrator 16.0.0, SVG Export Plug-In . SVG Version: 6.00 Build 0)  -->
<!DOCTYPE svg PUBLIC "-//W3C//DTD SVG 1.1//EN" "http://www.w3.org/Graphics/SVG/1.1/DTD/svg11.dtd">
<svg version="1.1" xmlns="http://www.w3.org/2000/svg" xmlns:xlink="http://www.w3.org/1999/xlink" x="0px" y="0px"
	 width="224.863px" height="42.523px" viewBox="0 0 224.863 42.523" enable-background="new 0 0 224.863 42.523"
	 xml:space="preserve">
<g id="Layer_1" display="none">
	
		<image display="inline" overflow="visible" width="2448" height="3264" xlink:href="../a.jpg"  transform="matrix(0.1833 0 0 0.1833 -92.8462 -168.3755)">
	</image>
</g>
<g id="body" display="none">
	<path display="inline" fill="#998477" stroke="#7A5C4E" stroke-miterlimit="10" d="M77.47,121.046c0,0,5.667,8.333,0,19.667
		s-25-3.666-30.667,5.667s-7,104.333-7,104.333s-5,19,10.333,22s3.334-13.334,4.667-19.667s4.703-58,4.703-58l5.63,85.667
		c0,0-3,23.001-1.667,28.667s10.667,7.334,11.667,0s-0.636-28.058,5.458-33.542c3.333-3,51.719-3.501,55.094-0.376
		s-3.719,32.251,1.031,37.751s6.75,2.125,9.5-4s2.5-31.375,5.25-35s3-71,5-81s2.5,60.5,2.5,60.5s-2,17.5,2.5,21.5
		s14.5,1.5,11.5-19.5s4-109-6.5-112s-29.5-0.5-29.5-10.5s-0.5-7.333,3-12.167S77.47,121.046,77.47,121.046z"/>
</g>
<g id="face" display="none">
	<path display="inline" fill="#998477" stroke="#7A5C4E" stroke-miterlimit="10" d="M210.09,58.213l0.29-1.34
		c-14.59,43.03-53.82,73.84-99.91,73.84c-18.51,0-35.92-4.97-51.06-13.71c-17.52-10.1-32.01-25.23-41.7-43.55
		c-2.16-4.07-4.08-8.3-5.74-12.66c-8,5.58-28.5-7.08-18.5-26.08c7.66-11.14,11.14-6.18,11.35-5.87c-0.23-3.01-0.35-6.05-0.35-9.13
		c0-61.3,47.46-111,106-111s106,49.7,106,111c0,3.72-0.17,7.4-0.52,11.03c0,0,2.1-4.61,6.77-4.95c2.56-0.18,6.5,2.78,7.75,5.17
		C240.57,51.053,218.161,64.123,210.09,58.213z"/>
</g>
<g id="blush" display="none" opacity="0.12">
	<path display="inline" fill="#66302A" d="M69.74,94.273c0,9.07-4,17.2-10.33,22.73c-17.52-10.1-32.01-25.23-41.7-43.55
		c5.49-5.77,13.25-9.36,21.85-9.36C56.23,64.093,69.74,77.603,69.74,94.273z"/>
	<path display="inline" fill="#66302A" d="M151.71,94.273c0,9.07,4,17.2,10.33,22.73c17.52-10.1,32.01-25.23,41.699-43.55
		c-5.49-5.77-13.25-9.36-21.85-9.36C165.22,64.093,151.71,77.603,151.71,94.273z"/>
</g>
<g id="hair" display="none">
	<path display="inline" fill="#33302E" stroke="#2D2624" stroke-miterlimit="10" d="M13.033,45.963
		C9.22,37.775,3.842,35.408-0.78,31.213c-3.833-12-0.25-33-0.25-33s-12.667-15.167,9.5-50.5c11.917-18.083,36.333-40,42.823-47.1
		c0.177,5.933-3.073,9.683-1.323,13.6c3.5-3,53-31,66-30.5c-12.629,11.749-23.5,17-23.5,17s67.668-29,88-17.667
		c-18.942,5-24,8.667-30.666,10.667c7.5,0,53.166-6.833,63.666,24.667c-7.667-5.417-10.25-6-19.5-4.5
		c16.496,2.471,29.081,38.779,29.5,48.661c-2.672-2.863-2.342-4.255-10.467-7.505c8.75,11.375,18.842,43.302,13.467,73.177
		c-1.966,0.062-2-1.167-6,1c-2.584,4.5-4.917,6.25-12,13.833c-0.971,0.794-1.75,0.667-1.058-3.005
		c3.974-8.995,2.39-27.995-0.776-39.579c1.501-7.75-16.166-36.083-22.997-33.514c-4.415-3.391-26.835-31.236-49.669-32.736
		c3.667,3.167,4.5,3.833,6,6.5c-12-6.833-43.667-6.333-65.5,2.5c5-0.167,6.938,0.125,9.375,0.688
		c-21.625,3.938-40.312,8.688-56,27.812c2.5,15,0.499,15.674,2.875,23.25c-6-5.875-6.75-13.125-11.25,14.25
		C15.908,18.9,14.72,33.65,13.033,45.963z"/>
	<ellipse display="inline" fill="#33302E" stroke="#2D2624" stroke-miterlimit="10" cx="108.47" cy="103.713" rx="11" ry="2.5"/>
	<path display="inline" fill="#33302E" stroke="#2D2624" stroke-miterlimit="10" d="M139.47,127.213c0,4.971-13.599,9-30.375,9
		s-33.875-4.029-33.875-9s17.099-9,33.875-9S139.47,122.242,139.47,127.213z"/>
</g>
<g id="eyes" display="none">
	<path id="l" display="inline" fill="none" stroke="#2D2624" stroke-miterlimit="10" d="M46.97,20.713c0,0,19.5,20,35-2.5"/>
	<path id="r" display="inline" fill="none" stroke="#2D2624" stroke-miterlimit="10" d="M175.726,20.192
		c0,0-18.658,20.788-35.073-1.053"/>
	<path display="inline" fill="#2D2624" d="M37.05-15.519l-0.492-0.87c0.315-0.178,7.751-4.373,10.284-5.048l0.258,0.966
		C44.688-19.828,37.126-15.562,37.05-15.519z"/>
	<path display="inline" fill="#2D2624" d="M184.446-12.605c-3.922-4.042-10.943-5.367-11.014-5.38l0.18-0.983
		c0.301,0.055,7.403,1.393,11.551,5.667L184.446-12.605z"/>
	<g>
		<path display="inline" fill="#8C2626" stroke="#471A1A" stroke-miterlimit="10" d="M71.851,8.383
			c0.463-0.072,0.959-0.123,1.494-0.152c3.255-0.182,7.416,2.181,8.736,7.737l0.289,1.872c0.412,5.45-2.629,12.717-13.222,22.883
			C55.983,34.224,50.893,28.21,49.642,22.891l-0.289-1.872c-0.417-5.695,2.838-9.203,5.995-10.01
			c0.52-0.134,1.008-0.234,1.471-0.306c3.704-0.572,5.729,0.755,8.138,2.865C66.617,10.83,68.146,8.955,71.851,8.383"/>
	</g>
	<g>
		<path display="inline" fill="#8C2626" stroke="#471A1A" stroke-miterlimit="10" d="M149.872,8.383
			c3.704,0.571,5.234,2.447,6.894,5.185c2.41-2.11,4.435-3.437,8.139-2.865c0.463,0.071,0.951,0.172,1.471,0.306
			c3.157,0.807,6.412,4.315,5.995,10.01l-0.289,1.872c-1.251,5.319-6.341,11.333-19.505,17.832
			c-10.594-10.166-13.635-17.433-13.223-22.883l0.289-1.872c1.319-5.556,5.48-7.919,8.735-7.737
			C148.912,8.26,149.408,8.312,149.872,8.383"/>
	</g>
</g>
<g id="glasses">
	<path id="l_x5F_frame" fill="#2D2624" d="M94.85,18.993l-2.04-18.75l-60.56,6.57l0.49,4.53l0.17,1.57l3.22,29.61l60.56-6.58
		L94.85,18.993z M33.63,7.923l58.08-6.3l3.6,33.22l-58.08,6.3L33.63,7.923z"/>
	<path id="r_x5F_frame" fill="#2D2624" d="M186.48,42.279l-60.561-6.572L129.794,0l60.56,6.572L186.48,42.279z M127.297,34.6
		l58.076,6.301l3.604-33.222l-58.076-6.301L127.297,34.6z"/>
	<path id="nose_x5F_bridge" fill="#2D2624" d="M94.324,20.348l-0.93-1.771c7.801-4.095,27.042-5.857,36.021-0.3l-1.053,1.7
		C120.068,14.844,101.555,16.554,94.324,20.348z"/>
	<path id="l_x5F_earpiece" fill="#2D2624" d="M32.91,12.913c-2.53,1.25-23.67,11.75-32.21,20.27L0,31.833
		c9.16-9.14,32.49-20.46,32.72-20.57l0.02,0.08L32.91,12.913z"/>
	<path id="r_x5F_earpiece" fill="#2D2624" d="M223.404,28.608c-6.45-6.886-34.631-16.682-34.907-16.799l0.779-1.842
		c1.143,0.483,28.849,10.079,35.587,17.273L223.404,28.608z"/>
</g>
<g id="mouth" display="none">
	<path id="smile" display="inline" fill="none" stroke="#2D2624" stroke-miterlimit="10" d="M132.761,84.455
		c-9.241,12.938-39.605,12.271-48.583,2.112"/>
	<circle id="open_x5F_mouth" fill="#2D2624" cx="108.804" cy="92.18" r="4.649"/>
</g>
<g id="pants" display="none">
	<path display="inline" fill="#2D405B" stroke="#1C2530" stroke-miterlimit="10" d="M58.47,288.713
		c-0.083-6.834,0.531-16.194,3.833-24.167c14-2.666,86.417-4.083,94.667-2.083c1.583,11.083,1,17.917,0,29.25
		c-9.5-2.583-16.833-2.667-26.688-0.925c0.333-5.417,1.188-10.575,1.188-10.575s-32.75-2.084-49.14-0.971
		c-0.667,3.583-0.86,5.971-0.61,8.971C72.22,287.546,65.97,287.129,58.47,288.713z"/>
</g>
<g id="shoes" display="none">
	<path display="inline" fill="#54585B" stroke="#373A3D" stroke-miterlimit="10" d="M47.804,324.047H85.47c0,0,3.5-16.02-9-16
		c-7.667-0.02-10.667-0.02-18.007-0.02C48.637,308.027,46.804,316.037,47.804,324.047z"/>
	<path display="inline" fill="#54585B" stroke="#373A3D" stroke-miterlimit="10" d="M161.679,324.047h-37.666c0,0-3.5-16.02,9-16
		c7.666-0.02,10.666-0.02,18.007-0.02C160.847,308.027,162.679,316.037,161.679,324.047z"/>
</g>
<g id="bangles" display="none">
	<path display="inline" fill="#2D2624" d="M57.723,257.518c-8.833-5.01-23.186-5.799-23.33-5.807l0.153-2.996
		c0.616,0.031,15.2,0.83,24.657,6.193L57.723,257.518z"/>
	<path display="inline" fill="#2D2624" d="M57.723,252.518c-8.833-5.01-23.186-5.799-23.33-5.807l0.153-2.996
		c0.616,0.031,15.2,0.83,24.657,6.193L57.723,252.518z"/>
	<path display="inline" fill="#2D2624" d="M57.723,247.518c-8.833-5.01-23.186-5.799-23.33-5.807l0.153-2.996
		c0.616,0.031,15.2,0.83,24.657,6.193L57.723,247.518z"/>
</g>
<g id="shirt_1_" display="none">
	<path id="shirt" display="inline" fill="#66302A" stroke="#3A201E" stroke-miterlimit="10" d="M43.47,142.213l33.333-4
		c0,0,37.834,18.5,64,0c9.166,0.301,32.333,2.5,32.333,2.5l11.833,61.334l-20.167,4.833c0,0-5.658,44.755-7.666,62.833
		c-29.25-5.417-73.167-5.499-100.667,2.5c-1.667-11.999-5.833-63.167-5.833-63.167l-18-6.166L43.47,142.213z"/>
	<path display="inline" fill="#5E2D2D" d="M110.76,153.465c-16.467,0-33.029-5.689-42.614-13.872l0.649-0.76
		c17.339,14.802,57.863,21.337,78.315,0.033l0.721,0.693C138.328,149.459,124.576,153.465,110.76,153.465z"/>
	<path display="inline" fill="none" d="M63.97,214.713c25.75-15.666,63.5-15.666,85.75,0"/>
	<text transform="matrix(0.9542 -0.2993 0.2993 0.9542 66.6426 211.582)" display="inline"><tspan x="0" y="0" fill="#A37911" font-family="'FineCollege'" font-size="45">U</tspan><tspan x="28.114" y="-0.264" fill="#A37911" font-family="'FineCollege'" font-size="45" rotate="17.596">S</tspan><tspan x="54.813" y="7.961" fill="#A37911" font-family="'FineCollege'" font-size="45" rotate="35.638">C</tspan></text>
</g>
</svg>
