<?xml version="1.0" encoding="utf-8"?>
<!-- Generator: Adobe Illustrator 16.0.0, SVG Export Plug-In . SVG Version: 6.00 Build 0)  -->
<!DOCTYPE svg PUBLIC "-//W3C//DTD SVG 1.1//EN" "http://www.w3.org/Graphics/SVG/1.1/DTD/svg11.dtd">
<svg version="1.1" xmlns="http://www.w3.org/2000/svg" xmlns:xlink="http://www.w3.org/1999/xlink" x="0px" y="0px"
	 width="75.345px" height="113.35px" viewBox="0 0 75.345 113.35" enable-background="new 0 0 75.345 113.35" xml:space="preserve">
<g id="ref" display="none">
	
		<image display="inline" overflow="visible" width="250" height="190" xlink:href="disney.png"  transform="matrix(3.1007 0 0 2.6904 -239.2417 -101.3018)">
	</image>
</g>
<g id="base">
	<polyline fill="#EDBEC7" stroke="#C49DA8" stroke-miterlimit="10" points="148.345,81.05 148.345,49.55 142.361,45.55 
		142.361,40.8 145.111,37.05 175.611,37.05 178.611,41.05 178.611,45.8 171.778,49.509 171.861,101.8 148.345,101.8 	"/>
	<path fill="#EDBEC7" stroke="#C49DA8" stroke-miterlimit="10" d="M242.361,129.97v3.66l-7.33,1.5v46.5l-61.8,15.1
		c-24.886-101.763-47.537-1.312-45.16,8.37l-70.21-24.8v-55l-9-6h52l-8,5.5l-1,46.74h7V109.3h16.17v29.17h4.66v-5.5l62.67-0.34
		l-13.33-27.66h32.66l-16.33,27.5l3.33-0.17l-0.16,5.33h9.5v11.5h2.83v-14.16l-7-0.67v-4.33H242.361z"/>
	<rect x="139.861" y="30.24" fill="#EDBEC7" stroke="#C49DA8" stroke-miterlimit="10" width="39.25" height="4.87"/>
</g>
<g id="roof" display="none">
	<path display="inline" fill="#51BCB9" stroke="#1F8989" stroke-miterlimit="10" d="M119.861,106.333
		c-9.748-0.787-8.873-0.732-11.834-0.733c-2.961,0-2.084-0.054-11.836,0.733c0,0,9.436-22.655,11.835-38.533
		C110.421,83.678,119.861,106.333,119.861,106.333z"/>
	<path display="inline" fill="#51BCB9" stroke="#1F8989" stroke-miterlimit="10" d="M200.361,101.575
		c-3.892-0.562-11.498-1.107-15.335-1.107c-3.836,0-10.264,0.343-15.335,1.107c0,0,12.226-26.955,15.335-43.049
		C188.129,74.62,200.361,101.575,200.361,101.575z"/>
	<path display="inline" fill="#51BCB9" stroke="#1F8989" stroke-miterlimit="10" d="M185.112,29.538
		c-5.001-1.738-19.091-4.736-25.461-4.738c-6.369,0-20.04,2.5-25.46,4.738c0,0,22.42-41.488,25.46-92.943
		C162.861-11.95,185.112,29.538,185.112,29.538z"/>
	<path display="inline" fill="#51BCB9" stroke="#1F8989" stroke-miterlimit="10" d="M101.361,116.3
		c-21.69-1.75-19.745-1.63-26.333-1.63c-6.589,0-4.637-0.12-26.337,1.63c0,0,21-22.67,26.34-58
		C80.361,93.63,101.361,116.3,101.361,116.3z"/>
	<path display="inline" fill="#51BCB9" stroke="#1F8989" stroke-miterlimit="10" d="M243.695,126.634
		c-21.69-1.75-19.745-1.63-26.334-1.63s-4.637-0.12-26.336,1.63c0,0,21-22.67,26.34-58
		C222.695,103.964,243.695,126.634,243.695,126.634z"/>
	<path display="inline" fill="#51BCB9" stroke="#1F8989" stroke-miterlimit="10" d="M146.361,129.05h-30.25c0,0,13.5-23,13.5-47.75
		h16.75"/>
	<path display="inline" fill="#51BCB9" stroke="#1F8989" stroke-miterlimit="10" d="M145.488,129.05h31.167
		c0,0-13.909-23-13.909-47.75h-17.258"/>
</g>
<g id="flags" display="none">
	<path display="inline" fill="#F2727F" stroke="#BA5B69" stroke-miterlimit="10" d="M75.026,47.693c0,1.939,0,4.49,0,5.918
		c14.157-0.103,3.929,1.836,16.958,1.836C84.312,53.203,88.94,49.122,75.026,47.693z"/>
	<path display="inline" fill="#F2727F" stroke="#BA5B69" stroke-miterlimit="10" d="M159.651-74.908c0,3.167,0,7.333,0,9.667
		c19.377-0.167,5.377,3,23.21,3C172.361-65.908,178.695-72.575,159.651-74.908z"/>
	<path display="inline" fill="#F2727F" stroke="#BA5B69" stroke-miterlimit="10" d="M185.587,48.381c0,1.939,0,4.49,0,5.918
		c14.158-0.103,3.93,1.836,16.959,1.836C194.875,53.891,199.501,49.81,185.587,48.381z"/>
</g>
<g id="cloud">
	<path fill="#DCF2F7" d="M17.361,199.3c0,0,42-50,110-14c54-18,87-23,142,14c0,0,33-9,51,20c-41,0-325,0-325,0
		S-3.639,198.3,17.361,199.3z"/>
</g>
<g id="mickeys">
	<path fill="#9C7CB8" d="M287.531,94.03c-0.01,1.04-0.02,1.6-0.02,1.6l-0.301,0.01c0,0-0.069-0.55-0.21-1.58
		c-0.12-1.03-0.34-2.53-0.68-4.43c-0.41-1.88-0.86-4.17-1.66-6.72c-0.77-2.55-1.81-5.36-3.21-8.3c-1.399-2.93-3.18-5.98-5.34-9.01
		c-2.17-3.02-4.74-6-7.59-8.93c-2.83-2.93-5.99-5.77-9.3-8.55c-3.311-2.79-6.83-5.47-10.351-8.17c-3.52-2.69-7.06-5.4-10.41-8.27
		c-3.33-2.88-6.489-5.92-9.05-9.33c-2.54-3.39-4.5-7.14-5.359-10.97c-0.9-3.82-0.86-7.58-0.311-10.91c0.53-3.34,1.49-6.28,2.48-8.81
		c0.979-2.54,2.069-4.65,2.949-6.38c0.94-1.71,1.69-3.04,2.24-3.92c0.36-0.61,0.61-1.03,0.74-1.23c0.09,0.04,0.19,0.07,0.29,0.09
		c0.04-0.05,0.05-0.08,0.05-0.08l-0.26-0.15c0,0-0.03,0.05-0.08,0.14c-7.4-2.45-10.74-10.04-7.47-17.52
		c0.939-2.14,2.319-4.06,4-5.67c-0.471-0.04-0.95-0.12-1.42-0.23c-4.83-1.17-7.11-5.87-5.091-10.49c2.021-4.63,7.57-7.43,12.4-6.26
		c4.83,1.16,7.11,5.86,5.09,10.49c-0.189,0.44-0.43,0.88-0.68,1.29c2.26-0.39,4.6-0.35,6.84,0.19c2.23,0.54,4.15,1.53,5.68,2.84
		c0.12-0.45,0.271-0.9,0.471-1.35c2.02-4.63,7.569-7.43,12.399-6.26s7.11,5.86,5.09,10.49c-2.01,4.62-7.569,7.43-12.399,6.26
		c-0.47-0.11-0.92-0.26-1.34-0.44c0.09,2.04-0.301,4.2-1.24,6.34c-3.44,7.88-12.89,12.65-21.12,10.67
		c-0.31-0.08-0.62-0.16-0.92-0.25c-0.1,0.18-0.34,0.63-0.72,1.3c-0.53,0.9-1.23,2.26-2.101,3.98c-0.81,1.75-1.819,3.87-2.7,6.41
		c-0.899,2.53-1.739,5.45-2.14,8.7c-0.43,3.24-0.34,6.83,0.64,10.41c0.94,3.59,2.851,7.08,5.37,10.26c2.53,3.19,5.66,6.07,9,8.81
		c3.351,2.73,6.92,5.33,10.511,7.93c3.6,2.59,7.21,5.2,10.689,7.9c3.48,2.69,6.76,5.57,9.771,8.55c2.939,3.04,5.6,6.2,7.729,9.47
		c2.17,3.25,3.88,6.54,5.16,9.69c1.29,3.15,2.13,6.16,2.71,8.84c0.59,2.68,0.83,5.06,1,7.01
		C287.481,91.45,287.561,92.98,287.531,94.03z"/>
	<path fill="#F2727F" d="M118.731-77.54c-0.34,0.04-0.69,0.05-1.03,0.04c0.92,1.33,1.58,2.86,1.89,4.51
		c1.07,5.66-2.28,10.83-7.61,12.09c0,0,0.07,0.28,0.21,0.81c0.13,0.52,0.38,1.28,0.58,2.27c0.15,1.01,0.42,2.23,0.43,3.66
		c0.01,0.35,0.06,0.72,0.04,1.1c-0.03,0.38-0.05,0.77-0.08,1.17c-0.01,0.8-0.22,1.63-0.39,2.5c-0.44,1.7-1.11,3.54-2.25,5.23
		c-1.09,1.72-2.5,3.33-4.06,4.87s-3.27,3-4.92,4.54c-1.64,1.54-3.25,3.15-4.49,4.98c-1.24,1.82-2.05,3.87-2.22,5.98l-0.08,0.78
		l0.03,0.79c0.03,0.53,0,1.05,0.12,1.57c0.08,0.52,0.16,1.03,0.24,1.54c0.14,0.51,0.29,1.01,0.43,1.51l0.19,0.75l0.27,0.72
		c0.17,0.48,0.35,0.96,0.52,1.43c0.38,0.94,0.84,1.82,1.22,2.71c0.41,0.88,0.89,1.7,1.32,2.52c0.4,0.82,0.88,1.57,1.32,2.31
		c0.44,0.74,0.86,1.44,1.26,2.11c0.43,0.66,0.84,1.29,1.22,1.87c0.75,1.18,1.44,2.19,2.01,3.03c1.15,1.66,1.77,2.64,1.77,2.64
		l-0.15,0.12c0,0-0.81-0.83-2.17-2.33c-0.35-0.38-0.73-0.79-1.14-1.24c-0.39-0.48-0.8-0.99-1.25-1.54
		c-0.44-0.55-0.92-1.14-1.42-1.76c-0.49-0.63-0.97-1.32-1.47-2.03c-1.05-1.41-2.02-3.05-3.02-4.81c-0.46-0.91-0.96-1.83-1.37-2.82
		c-0.2-0.5-0.39-1.01-0.59-1.52l-0.3-0.78l-0.23-0.81c-0.14-0.55-0.28-1.1-0.42-1.66c-0.08-0.57-0.16-1.15-0.24-1.74
		c-0.11-0.57-0.07-1.18-0.07-1.78v-0.9l0.13-0.9c0.3-2.42,1.34-4.76,2.78-6.69c1.42-1.95,3.16-3.57,4.88-5.07
		c1.73-1.51,3.47-2.9,5.04-4.36c1.57-1.45,2.96-2.97,4.08-4.55c1.15-1.57,1.86-3.28,2.36-4.89c0.19-0.82,0.43-1.61,0.47-2.39
		c0.04-0.38,0.09-0.76,0.13-1.12c0.03-0.37,0-0.73,0.01-1.08c0.05-1.39-0.16-2.59-0.27-3.59c-0.15-0.99-0.37-1.76-0.48-2.29
		c-0.11-0.53-0.18-0.81-0.18-0.81c-0.33,0.07-0.67,0.13-1.01,0.17c-6.03,0.73-11.84-3.61-12.99-9.68c-0.32-1.65-0.25-3.27,0.13-4.75
		c-0.32,0.09-0.65,0.16-1,0.2c-3.53,0.42-6.95-2.12-7.62-5.69c-0.68-3.56,1.64-6.8,5.18-7.23c3.53-0.42,6.95,2.12,7.62,5.69
		c0.07,0.34,0.11,0.69,0.12,1.03c1.26-0.82,2.75-1.38,4.39-1.57c1.63-0.2,3.26-0.02,4.77,0.46c-0.11-0.32-0.2-0.66-0.27-1
		c-0.67-3.57,1.65-6.81,5.18-7.23c3.54-0.43,6.95,2.12,7.63,5.68C124.581-81.2,122.261-77.959,118.731-77.54z"/>
	<path fill="#95CA57" d="M74.891,11c-1.39,3.81-5.51,6.5-9.21,5.99c-0.35-0.05-0.7-0.13-1.02-0.23c0.13,1.6-0.1,3.33-0.74,5.09
		c-2.26,6.18-8.93,10.69-14.94,10.29c0.01,0.1,0.09,0.53,0.19,1.22c0.06,0.39,0.12,0.88,0.16,1.46c0.05,0.58,0.11,1.25,0.11,2
		c0.04,1.5-0.03,3.34-0.52,5.4c-0.47,2.05-1.43,4.32-3.08,6.37c-1.64,2.06-3.93,3.84-6.55,5.25c-2.62,1.43-5.55,2.53-8.58,3.58
		c-3.03,1.03-6.18,2-9.3,3.12c-3.11,1.14-6.21,2.42-8.98,4.17c-2.76,1.75-5.15,3.99-6.73,6.69c-0.8,1.34-1.37,2.79-1.82,4.26
		c-0.24,0.72-0.37,1.48-0.55,2.22c-0.1,0.76-0.26,1.5-0.31,2.27c-0.32,3.01-0.19,6,0.1,8.83c0.32,2.83,0.81,5.51,1.33,7.97
		c0.29,1.23,0.55,2.41,0.83,3.52c0.3,1.12,0.58,2.18,0.84,3.17c0.55,1.99,1.07,3.71,1.49,5.14c0.41,1.43,0.81,2.53,1.02,3.29
		c0.23,0.77,0.36,1.18,0.36,1.18l-0.26,0.1c0,0-0.19-0.38-0.54-1.1c-0.36-0.71-0.88-1.77-1.49-3.13c-0.3-0.68-0.64-1.44-1.01-2.26
		c-0.34-0.84-0.7-1.75-1.09-2.71c-0.75-1.95-1.54-4.18-2.28-6.65c-0.72-2.48-1.39-5.22-1.84-8.18c-0.46-2.95-0.65-6.16-0.3-9.49
		c0.06-0.83,0.26-1.66,0.39-2.5c0.21-0.83,0.39-1.67,0.68-2.5c0.53-1.66,1.28-3.29,2.26-4.78c1.95-3.02,4.73-5.45,7.77-7.22
		c3.05-1.79,6.31-3.02,9.52-4.08c3.21-1.05,6.39-1.91,9.41-2.85c3.03-0.93,5.91-1.95,8.48-3.21c2.57-1.25,4.79-2.85,6.42-4.71
		c1.62-1.87,2.62-3.97,3.15-5.93c0.55-1.96,0.7-3.76,0.71-5.23c0.04-0.74,0-1.4-0.02-1.97c-0.02-0.57-0.06-1.06-0.11-1.45
		c-0.07-0.8-0.05-1.28-0.05-1.28c-0.18-0.01-0.37-0.03-0.55-0.06c-6.3-0.86-9.49-6.82-7.13-13.32c0.64-1.77,1.63-3.4,2.86-4.81
		c-0.37,0.01-0.73-0.01-1.09-0.06c-3.7-0.5-5.57-4-4.19-7.82c1.39-3.81,5.51-6.49,9.21-5.99c3.69,0.51,5.57,4.01,4.18,7.82
		c-0.13,0.37-0.29,0.74-0.48,1.08c1.71-0.5,3.48-0.67,5.19-0.43c1.71,0.23,3.2,0.85,4.4,1.74c0.07-0.36,0.18-0.73,0.31-1.1
		c1.38-3.81,5.51-6.49,9.2-5.99C74.401,3.69,76.271,7.19,74.891,11z"/>
</g>
</svg>
