<?xml version="1.0" encoding="utf-8"?>
<!-- Generator: Adobe Illustrator 16.0.0, SVG Export Plug-In . SVG Version: 6.00 Build 0)  -->
<!DOCTYPE svg PUBLIC "-//W3C//DTD SVG 1.1//EN" "http://www.w3.org/Graphics/SVG/1.1/DTD/svg11.dtd">
<svg version="1.1" xmlns="http://www.w3.org/2000/svg" xmlns:xlink="http://www.w3.org/1999/xlink" x="0px" y="0px"
	 width="540.651px" height="448.625px" viewBox="0 0 540.651 448.625" enable-background="new 0 0 540.651 448.625"
	 xml:space="preserve">
<g id="ref" display="none">
	
		<image display="inline" overflow="visible" width="2448" height="3264" xlink:href="../p.jpg"  transform="matrix(1 0 0 1 -867.7759 -611.6504)">
	</image>
</g>
<g id="guide" display="none">
</g>
<g id="hair_x5F_back" display="none">
	<path display="inline" fill="#352E2A" stroke="#211C1B" stroke-miterlimit="10" d="M-31.776,1728.35
		c-245.843-624-544.985-1506.1-24-1852c488-324,1224,367.29,534.129,1440.204c-58.072,111.133-21.797,240.949-111.039,308.768
		C233.824,1726.767-39.433,1703.853-31.776,1728.35z"/>
</g>
<g id="body" display="none">
	<path display="inline" fill="#997D6E" stroke="#3F2F2A" stroke-miterlimit="10" d="M79.328,977.442
		c0,0,17.896,120.909,5.896,156.908c-5.291,15.875-10.628,26.009-35.666,20.667c-47.949-10.229-101.413-13.219-114.223,11.416
		c-33.702,64.812-47.998,545.176-47.998,545.176s-63.114,86.921,22.499,136.493c29.726-26.763,16.499-128.994,17.999-143.993
		s35.999-279.69,71.997-344.188s-28.499,107.995,25.499,136.493s-4.499,199.489-7.499,247.487s50.997,86.996,55.497,122.994
		s37.383,190.49,41.94,229.488s3.057,22.499,25.556,17.999s13.899-186.534,27.398-209.033s14.6-35.454,37.099-21.955
		c3.723,2.234,1.559,8.112,2.876,17.955c6.645,49.64,2.692,135.001-1.975,207.667c-0.947,14.743,30.239,37.913,36.327,1.081
		c13.724-83.028,40.674-186.25,52.673-225.248c2.795-9.083,24.214-30.841,31-40.272c22.348-31.064,33.631-59.994,45.591-118.678
		c16.481-80.874-15.591-202.485-15.591-233.518c44.088-25.964,39.591-90.467,42.59-120.465s71.996,251.987,71.996,313.484
		s-27,121.495-12,128.994s16.499-34.498,20.999-38.998s-9,8.998,0,61.496s62.997-64.497,43.498-133.493
		c-17.454-61.76-38.1-442.12-72.416-525.051c-8-19.333-28-19.333-42-19.333c-34.493,0,5.327-4.162-75.667-5.667
		c-15.666-0.291-25.306-11.894-31-21c-24.674-39.464-2.03-132.967-6.905-154.908C295.319,977.442,122.825,912.95,79.328,977.442z"/>
</g>
<g id="face" display="none">
	<path display="inline" fill="#997D6E" stroke="#3F2F2A" stroke-miterlimit="10" d="M561.864,671.56
		c-4.3,16.85-12.239,36.74-21.96,57.16c-18.72,39.31-44.029,80.55-62.63,105.7c-10.04,13.57-18.54,24.84-26,34.42
		c-32.91,42.32-45.39,51.64-79.46,79.94c-34.1,28.33-72.19,48.36-106.92,59.87c-27.56,9.13-86.67,11.7-132.67,2.13
		c-105.31-34.43-185.86-116.83-202.75-132.43c-55.28-68-105.25-175-105.25-354c0-273.66,164.76-495.5,368-495.5
		s388,221.84,388,495.5c0,6.31-0.1,12.6-0.29,18.86c13.44-11.73,36.69-22.87,42.29,33.14
		C628.774,641.85,579.014,676.51,561.864,671.56z"/>
	<g display="inline">
		<path opacity="0.15" fill="#7C2A5B" d="M539.904,728.72c-18.72,39.31-44.029,80.55-62.63,105.7c-10.04,13.57-18.54,24.84-26,34.42
			c-47.16-4.45-84.06-44.17-84.06-92.49c0-51.31,41.6-92.91,92.91-92.91C494.024,683.439,523.684,701.6,539.904,728.72z"/>
	</g>
	<g display="inline">
		<path opacity="0.15" fill="#7C2A5B" d="M-159.292,731.93c18.72,39.31,44.029,80.55,62.63,105.7c10.04,13.57,18.54,24.84,26,34.42
			c47.16-4.45,84.06-44.17,84.06-92.49c0-51.31-41.6-92.91-92.91-92.91C-113.413,686.649-143.073,704.81-159.292,731.93z"/>
	</g>
</g>
<g id="eyes" display="none">
	<path id="l_x5F_eye" display="inline" fill="#211C1B" d="M67.55,507.103c-1.317-1.727-2.805-3.934-4.751-6.262
		c-0.986-1.156-2.035-2.392-3.141-3.692c-1.196-1.228-2.448-2.52-3.763-3.856c-1.345-1.313-2.838-2.583-4.343-3.95
		c-0.766-0.659-1.62-1.256-2.445-1.901c-0.847-0.618-1.666-1.318-2.58-1.901c-1.818-1.163-3.641-2.477-5.681-3.508
		c-1.007-0.535-1.998-1.155-3.077-1.611c-1.062-0.473-2.145-0.953-3.24-1.426c-4.44-1.751-9.251-3.066-14.273-3.652
		c-5.027-0.575-10.207-0.368-15.277,0.403c-5.068,0.829-10.045,2.181-14.702,4.099c-4.677,1.876-9.095,4.139-13.172,6.607
		c-4.067,2.505-7.845,5.143-11.265,7.868c-1.732,1.314-3.325,2.71-4.9,4.021c-0.513,0.467-1.023,0.924-1.533,1.382
		c-0.929-0.439-19.841-25.328-19.841-25.328c6.034,14.338,9.245,20.125,15.734,29.135c-0.919,0.881-1.818,1.733-2.644,2.599
		c-1.187,1.246-2.347,2.411-3.386,3.548c-0.779,0.859-1.521,1.672-2.224,2.441c-0.827-0.381-17.57-21.493-17.57-21.493
		c5.495,13.4,10.298,20.194,14.52,25.029c-1.458,1.659-2.485,3.052-3.237,3.964c-0.632,0.817-1.018,1.304-1.097,1.404
		c0.253-0.223,2.057-1.88,5.076-4.636c0.814-0.732,1.709-1.541,2.684-2.424c0.992-0.865,2.063-1.797,3.214-2.805
		c2.301-1.98,4.946-4.155,7.842-6.484c1.457-1.155,3.01-2.301,4.598-3.517c1.641-1.139,3.252-2.425,5.022-3.59
		c3.455-2.437,7.276-4.706,11.237-6.962c4.006-2.194,8.254-4.182,12.665-5.862c4.414-1.69,9.029-2.924,13.685-3.652
		c4.659-0.739,9.378-0.93,13.963-0.526c4.588,0.462,9.014,1.499,13.185,2.93c1.033,0.395,2.056,0.785,3.065,1.184
		c1.016,0.378,1.962,0.903,2.938,1.335c1.973,0.838,3.747,1.963,5.547,2.948c1.752,1.061,3.393,2.222,5.012,3.283
		c1.544,1.186,3.089,2.268,4.494,3.405c1.39,1.179,2.718,2.313,3.976,3.391c1.217,1.131,2.362,2.216,3.451,3.236
		c1.109,0.992,2.013,2.064,2.939,2.972c0.9,0.921,1.73,1.786,2.482,2.554c2.665,3.027,4.315,4.82,4.509,5.035
		C71.099,512.58,69.803,510.529,67.55,507.103z"/>
	<path id="l_x5F_eye_1_" display="inline" fill="#211C1B" d="M335.355,511.258c0.195-0.213,1.857-1.995,4.543-5.004
		c0.757-0.763,1.593-1.621,2.499-2.537c0.932-0.901,1.845-1.968,2.959-2.951c1.096-1.013,2.248-2.089,3.474-3.212
		c1.265-1.069,2.601-2.194,3.999-3.364c1.41-1.128,2.966-2.2,4.518-3.374c1.624-1.05,3.273-2.2,5.033-3.249
		c1.807-0.973,3.589-2.086,5.568-2.911c0.979-0.425,1.928-0.943,2.943-1.314c1.015-0.392,2.04-0.774,3.076-1.162
		c4.182-1.403,8.614-2.408,13.205-2.84c4.588-0.372,9.304-0.146,13.959,0.623c4.65,0.76,9.257,2.026,13.659,3.747
		c4.399,1.711,8.633,3.728,12.625,5.95c3.942,2.282,7.748,4.577,11.188,7.039c1.762,1.176,3.365,2.474,4.997,3.625
		c1.578,1.225,3.125,2.381,4.573,3.547c2.88,2.349,5.511,4.541,7.799,6.537c1.144,1.016,2.207,1.954,3.193,2.828
		c0.969,0.891,1.857,1.705,2.667,2.442c3,2.778,4.793,4.447,5.045,4.673c-0.078-0.102-0.463-0.591-1.087-1.413
		c-0.746-0.918-1.762-2.317-3.211-3.986c4.255-4.806,9.105-11.566,14.692-24.929c0,0-16.888,20.996-17.718,21.372
		c-0.699-0.773-1.434-1.592-2.206-2.456c-1.032-1.145-2.183-2.317-3.363-3.571c-0.818-0.871-1.71-1.731-2.623-2.617
		c6.55-8.964,9.802-14.73,15.934-29.026c0,0-19.084,24.757-20.016,25.19c-0.505-0.46-1.014-0.921-1.522-1.393
		c-1.567-1.32-3.15-2.728-4.874-4.054c-3.399-2.748-7.159-5.411-11.21-7.946c-4.06-2.495-8.463-4.788-13.126-6.696
		c-4.644-1.95-9.612-3.335-14.673-4.201c-5.066-0.806-10.244-1.049-15.274-0.508c-5.025,0.551-9.846,1.833-14.298,3.554
		c-1.1,0.465-2.184,0.938-3.25,1.404c-1.083,0.449-2.078,1.062-3.088,1.589c-2.047,1.018-3.879,2.32-5.705,3.47
		c-0.918,0.576-1.741,1.271-2.592,1.883c-0.831,0.639-1.688,1.229-2.46,1.885c-1.513,1.354-3.016,2.616-4.369,3.918
		c-1.324,1.327-2.585,2.61-3.79,3.831c-1.114,1.292-2.171,2.52-3.166,3.67c-1.963,2.315-3.466,4.511-4.794,6.229
		C336.813,508.961,335.503,511.004,335.355,511.258z"/>
	<g display="inline">
		<path fill="#211C1B" d="M-86.815,381.345c0,0,0.907-1.173,2.656-3.079c0.901-0.925,1.957-2.096,3.286-3.312
			c0.659-0.614,1.342-1.291,2.097-1.963c0.763-0.664,1.566-1.362,2.404-2.09c0.824-0.748,1.75-1.439,2.684-2.19
			c0.949-0.73,1.887-1.547,2.933-2.274c2.069-1.485,4.245-3.073,6.624-4.517c1.183-0.731,2.354-1.534,3.601-2.239
			c1.25-0.701,2.516-1.411,3.792-2.126c0.64-0.356,1.282-0.713,1.926-1.072c0.662-0.323,1.326-0.647,1.991-0.973
			c1.332-0.65,2.669-1.304,4.007-1.957c2.699-1.254,5.478-2.329,8.168-3.515c2.75-1.019,5.487-1.957,8.147-2.825
			c2.703-0.718,5.345-1.306,7.852-1.828c2.494-0.584,4.927-0.752,7.135-1.059c2.218-0.254,4.239-0.54,6.061-0.539
			c1.815-0.048,3.394-0.075,4.693-0.073c2.598-0.007,4.077,0.062,4.077,0.062l0.031,0.398c0,0-1.443,0.398-3.958,0.966
			c-1.257,0.289-2.783,0.612-4.529,0.964c-1.757,0.282-3.689,0.886-5.818,1.373c-1.061,0.254-2.167,0.52-3.311,0.793
			c-0.573,0.126-1.156,0.255-1.748,0.386c-0.589,0.139-1.176,0.333-1.777,0.501c-2.391,0.72-4.938,1.356-7.56,2.06
			c-2.589,0.812-5.292,1.569-8.042,2.352c-2.689,0.948-5.451,1.863-8.156,2.922c-1.336,0.57-2.673,1.141-4.004,1.709
			c-0.667,0.284-1.332,0.568-1.995,0.851c-0.646,0.318-1.291,0.635-1.933,0.951c-1.284,0.636-2.558,1.267-3.816,1.89
			c-1.257,0.628-2.439,1.355-3.637,2.013c-2.414,1.289-4.604,2.765-6.74,4.081c-1.076,0.648-2.045,1.389-3.026,2.046
			c-0.966,0.678-1.926,1.302-2.783,1.983c-0.873,0.664-1.709,1.3-2.504,1.905c-0.788,0.615-1.503,1.237-2.194,1.801
			c-1.391,1.12-2.508,2.2-3.475,3.043c-1.872,1.752-2.852,2.837-2.852,2.837L-86.815,381.345z"/>
	</g>
</g>
<g id="Layer_13" display="none">
	<path display="inline" fill="none" stroke="#211C1B" stroke-width="3" stroke-miterlimit="10" d="M110.843,817.021
		c51.186,40.567,124.011,42.16,173.22-5.553"/>
	<circle display="inline" fill="#211C1B" cx="270.224" cy="758.35" r="5.333"/>
</g>
<g id="shorts" display="none">
	<path display="inline" fill="#AD5D50" stroke="#6B3F3F" stroke-miterlimit="10" d="M20.831,1817.403
		c17.558,41.217,44.989,76.495,48.743,91.495c24.65-3.549,64.15-7.549,114.317,4.119c2.068-11.216,4.637-25.668,8.333-47.85
		c2.333,21.515,3,19.182,9,47.85c49-4.668,60.986-3.098,103.092-0.086c20.178-32.123,29.908-71.582,51.908-95.528
		C220.224,1764.35,192.224,1760.447,20.831,1817.403z"/>
</g>
<g id="top" display="none">
	<path display="inline" fill="#E5DFCF" stroke="#827B75" stroke-miterlimit="10" d="M84.727,1104.968
		c98,264,118.825,244.494,212.825,4.494c8-76,120.672-46.45,128.672-34.112c19.335,303.001,28.002,353-39.411,439
		c-18.589,180-22.866,214-30.589,308.633c-70.479-14.552-151.394-47.225-335.394,2.775c-30.605-85.406,33.394-277.408-4.606-309.408
		c-48-52-33.654-74-38.827-90c10.175-159.643-10-278,38.827-314C46.224,1078.35,84.727,1104.968,84.727,1104.968z"/>
	<path display="inline" fill="#5E5068" stroke="#382E3D" stroke-miterlimit="10" d="M624.826,1691.74
		c2.086,5.827-0.515,12.088-5.808,13.981l-235.793,92.446c-5.292,1.893-12.915-3.99-15.001-9.818l-62.08-207.584
		c-2.086-5.828,0.514-12.089,5.807-13.983l244.366-87.438c5.292-1.894,11.274,1.297,13.359,7.124L624.826,1691.74z"/>
	<path display="inline" fill="#3F2E47" stroke="#2B252D" stroke-miterlimit="10" d="M633.399,1696.746
		c2.086,5.827-0.515,12.088-5.808,13.981l-244.366,87.44c-5.292,1.893-11.273-1.297-13.359-7.125l-55.148-205.271
		c-2.086-5.828,0.514-12.089,5.807-13.983l244.366-87.438c5.292-1.894,11.274,1.297,13.359,7.124L633.399,1696.746z"/>
	<path display="inline" fill="#997D6E" stroke="#3F2F2A" stroke-miterlimit="10" d="M398.814,1367.917
		c2.999-29.998,71.996,251.987,71.996,313.484s-27,121.495-12,128.994s16.499-34.498,20.999-38.998s-9,8.998,0,61.496
		s62.997-64.497,43.498-133.493c-17.454-61.76-38.1-442.12-72.416-525.051"/>
</g>
<g id="bag" display="none">
	<polygon display="inline" fill="#6B5B51" stroke="#282423" stroke-miterlimit="10" points="342.224,1239.93 34.006,1604.35 
		4.333,1604.35 325.316,1212.931 	"/>
	<path display="inline" fill="#6B5B51" stroke="#282423" stroke-miterlimit="10" d="M-6.253,1936.703
		c-1.245,6.51-8.841,10.527-16.966,8.974l-44.134-8.441c-8.125-1.555-13.703-8.092-12.458-14.601l60.488-316.268
		c1.245-6.509,8.841-10.527,16.965-8.973l44.135,8.441c8.125,1.554,13.703,8.091,12.458,14.6L-6.253,1936.703z"/>
	<path display="inline" fill="#6B5B51" stroke="#282423" stroke-miterlimit="10" d="M-79.555,1921.298
		c-1.204,6.296-3.994,11.052-6.232,10.623l-12.155-2.325c-2.238-0.429-3.076-5.878-1.872-12.173l58.495-305.844
		c1.204-6.295,3.994-11.052,6.232-10.624l12.156,2.325c2.238,0.429,3.076,5.879,1.872,12.174L-79.555,1921.298z"/>
</g>
<g id="hair_x5F_front">
	<path display="none" fill="#352E2A" stroke="#211C1B" stroke-miterlimit="10" d="M-136.996,447.756
		c-46.59,116.02-25.163,286.698,89.22,460.594c-170-82-264-318-141.383-746.871L-136.996,447.756"/>
	<path display="none" fill="#352E2A" stroke="#211C1B" stroke-miterlimit="10" d="M143.631,8.583
		C330.452,244.64,566.224,589.35,784.845,574.648c-40.621-63.299-46.429-124.514-48.621-153.299c0-64,2.166-380.794-276-514
		c-142-68-540-168-724,412c-34,161.347,0,356,44,460c0,0,8-268,136-408C41.259,234.593,138.222-15.141,143.631,8.583z"/>
	<path display="none" fill="#352E2A" stroke="#211C1B" stroke-miterlimit="10" d="M26.912,90.732
		c0,0,229.196,306.459,467.576,388.964C336.17,295.025,258.542,156.671,145.631,7.583"/>
	<path fill="#352E2A" stroke="#211C1B" stroke-miterlimit="10" d="M0.36,92.483c0,0,291.708,303.473,538.585,355.272
		C358.614,284.513,270.026,134.017,139.224,0.35"/>
	<path fill="#352E2A" stroke="#211C1B" stroke-miterlimit="10" d="M296.246,1000.407c-5.973,133.965,13.979,337.943,131.979,513.943
		c11.719-201.984,34.264-360,66.264-538c0,0,16.204-97.085,50.771-250.904C490.307,815.789,440.122,915.945,296.246,1000.407z"/>
	<path display="none" fill="#352E2A" stroke="#211C1B" stroke-miterlimit="10" d="M-101.776,1090.35c0,0,70,112,92,266
		c56-44,93.062-298.076,74.531-367.038"/>
</g>
<g id="shoes" display="none">
	<path display="inline" fill="#39424C" stroke="#282423" stroke-miterlimit="10" d="M69.574,2156.35h104.65
		c0,0,4-44.001-25.323-54.396c-10.518-1.815-22.27-4.507-45.842-1.171C84.965,2104.446,72.558,2121.7,69.574,2156.35z"/>
	<path display="inline" fill="#39424C" stroke="#282423" stroke-miterlimit="10" d="M281.408,2156.35h-104.65
		c0,0-4-44.001,25.323-54.396c10.518-1.815,22.27-4.507,45.842-1.171C266.017,2104.446,278.424,2121.7,281.408,2156.35z"/>
</g>
</svg>
