<?xml version="1.0" encoding="utf-8"?>
<!-- Generator: Adobe Illustrator 16.0.0, SVG Export Plug-In . SVG Version: 6.00 Build 0)  -->
<!DOCTYPE svg PUBLIC "-//W3C//DTD SVG 1.1//EN" "http://www.w3.org/Graphics/SVG/1.1/DTD/svg11.dtd">
<svg version="1.1" xmlns="http://www.w3.org/2000/svg" xmlns:xlink="http://www.w3.org/1999/xlink" x="0px" y="0px" width="600px"
	 height="174.15px" viewBox="0 0 600 174.15" enable-background="new 0 0 600 174.15" xml:space="preserve">
<g id="ref" display="none">
	<g display="inline">
		<image overflow="visible" width="600" height="962" xlink:href="../Sunny_SF.jpg"  transform="matrix(1 0 0 1 0 -612.8496)">
		</image>
	</g>
</g>
<g id="clouds" display="none">
	<path display="inline" fill="#FAF7EE" d="M558.729-287.82c-0.511-7.82-7.011-14-14.96-14h-1c-6.95,0-12.79,4.729-14.5,11.15
		c-1.7-6.421-7.54-11.15-14.5-11.15h-1c-6.95,0-12.79,4.729-14.5,11.15c-1.7-6.421-7.54-11.15-14.5-11.15h-1
		c-7.939,0-14.45,6.18-14.96,14H558.729z"/>
	<path display="inline" fill="#FAF7EE" d="M286.46-359.818c-0.511-7.82-7.011-14-14.96-14h-1c-6.95,0-12.79,4.729-14.5,11.15
		c-1.7-6.421-7.54-11.15-14.5-11.15h-1c-6.95,0-12.79,4.729-14.5,11.15c-1.7-6.421-7.54-11.15-14.5-11.15h-1
		c-7.939,0-14.45,6.18-14.96,14H286.46z"/>
	<path display="inline" fill="#FAF7EE" d="M70.555-302.847l-1.23-3.48c-0.06,0.211-0.12,0.421-0.18,0.631
		c-1.7-6.42-7.54-11.15-14.5-11.15h-1c-6.95,0-12.79,4.73-14.5,11.15c-1.7-6.42-7.54-11.15-14.5-11.15h-1
		c-7.94,0-14.45,6.18-14.96,14H70.555z"/>
</g>
<g id="bridge" display="none">
	<g id="bridge_x5F_l1" display="inline">
		<g id="Layer_5">
			<polyline fill="#D9714B" points="6.38,-129.64 6.38,-113.85 3.62,-113.85 3.62,-128.399 			"/>
			<polyline fill="#D9714B" points="12.38,-132.51 12.38,-113.85 9.62,-113.85 9.62,-131.159 			"/>
			<polyline fill="#D9714B" points="18.38,-135.669 18.38,-113.85 15.62,-113.85 15.62,-134.18 			"/>
			<polyline fill="#D9714B" points="24.38,-139.12 24.38,-113.85 21.62,-113.85 21.62,-137.49 			"/>
			<polyline fill="#D9714B" points="30.38,-142.879 30.38,-113.85 27.62,-113.85 27.62,-141.109 			"/>
			<polyline fill="#D9714B" points="36.38,-146.99 36.38,-113.85 33.62,-113.85 33.62,-145.06 			"/>
			<polyline fill="#D9714B" points="42.38,-151.47 42.38,-113.85 39.62,-113.85 39.62,-149.359 			"/>
			<polyline fill="#D9714B" points="48.38,-156.34 48.38,-113.85 45.62,-113.85 45.62,-154.05 			"/>
			<polyline fill="#D9714B" points="54.38,-161.66 54.38,-113.85 51.62,-113.85 51.62,-159.16 			"/>
			<polyline fill="#D9714B" points="60.38,-167.49 60.38,-113.85 57.62,-113.85 57.62,-164.74 			"/>
			<polyline fill="#D9714B" points="66.38,-173.899 66.38,-113.85 63.62,-113.85 63.62,-170.87 			"/>
			<polyline fill="#D9714B" points="72.38,-180.959 72.38,-113.85 69.62,-113.85 69.62,-177.62 			"/>
			<polyline fill="#D9714B" points="78.38,-188.85 78.38,-113.85 75.62,-113.85 75.62,-185.12 			"/>
			<polyline fill="#D9714B" points="84.38,-197.74 84.38,-113.85 81.62,-113.85 81.62,-193.51 			"/>
			<polyline fill="#D9714B" points="90.38,-207.939 90.38,-113.85 87.62,-113.85 87.62,-203.05 			"/>
			<polyline fill="#D9714B" points="96.38,-219.979 96.38,-113.85 93.62,-113.85 93.62,-214.16 			"/>
			<polyline fill="#D9714B" points="102.38,-235.04 102.38,-113.85 99.62,-113.85 99.62,-227.64 			"/>
			<polyline fill="#D9714B" points="107.47,-252.52 108.38,-252.52 108.38,-113.85 105.62,-113.85 105.62,-245.359 			"/>
		</g>
		<path fill="none" stroke="#D9714B" stroke-miterlimit="10" d="M-68.629-113.65c24.354,0,47.586-4.805,68.799-13.52
			c65.939-27.087,112.371-91.944,112.371-167.65"/>
		<rect x="110.951" y="-294.82" fill="#D9714B" width="4.972" height="310.521"/>
		<rect x="-68.629" y="-115.787" fill="#D9714B" width="183.629" height="9.375"/>
	</g>
	<g id="bridge_x5F_r1" display="inline">
		<g id="Layer_5_copy">
			<polyline fill="#D9714B" points="228.304,-128.399 228.304,-113.85 225.544,-113.85 225.544,-129.64 			"/>
			<polyline fill="#D9714B" points="222.304,-131.159 222.304,-113.85 219.544,-113.85 219.544,-132.51 			"/>
			<polyline fill="#D9714B" points="216.304,-134.18 216.304,-113.85 213.544,-113.85 213.544,-135.669 			"/>
			<polyline fill="#D9714B" points="210.304,-137.49 210.304,-113.85 207.544,-113.85 207.544,-139.12 			"/>
			<polyline fill="#D9714B" points="204.304,-141.109 204.304,-113.85 201.544,-113.85 201.544,-142.879 			"/>
			<polyline fill="#D9714B" points="198.304,-145.06 198.304,-113.85 195.544,-113.85 195.544,-146.99 			"/>
			<polyline fill="#D9714B" points="192.304,-149.359 192.304,-113.85 189.544,-113.85 189.544,-151.47 			"/>
			<polyline fill="#D9714B" points="186.304,-154.05 186.304,-113.85 183.544,-113.85 183.544,-156.34 			"/>
			<polyline fill="#D9714B" points="180.304,-159.16 180.304,-113.85 177.544,-113.85 177.544,-161.66 			"/>
			<polyline fill="#D9714B" points="174.304,-164.74 174.304,-113.85 171.544,-113.85 171.544,-167.49 			"/>
			<polyline fill="#D9714B" points="168.304,-170.87 168.304,-113.85 165.544,-113.85 165.544,-173.899 			"/>
			<polyline fill="#D9714B" points="162.304,-177.62 162.304,-113.85 159.544,-113.85 159.544,-180.959 			"/>
			<polyline fill="#D9714B" points="156.304,-185.12 156.304,-113.85 153.544,-113.85 153.544,-188.85 			"/>
			<polyline fill="#D9714B" points="150.304,-193.51 150.304,-113.85 147.544,-113.85 147.544,-197.74 			"/>
			<polyline fill="#D9714B" points="144.304,-203.05 144.304,-113.85 141.544,-113.85 141.544,-207.939 			"/>
			<polyline fill="#D9714B" points="138.304,-214.16 138.304,-113.85 135.544,-113.85 135.544,-219.979 			"/>
			<polyline fill="#D9714B" points="132.304,-227.64 132.304,-113.85 129.544,-113.85 129.544,-235.04 			"/>
			<polyline fill="#D9714B" points="126.304,-245.359 126.304,-113.85 123.544,-113.85 123.544,-252.52 124.454,-252.52 			"/>
			<polyline fill="#D9714B" points="234.76,-126.244 234.76,-111.694 232,-111.694 232,-127.484 			"/>
			<polyline fill="#D9714B" points="241,-123.441 241,-108.892 238.24,-108.892 238.24,-124.682 			"/>
			<polyline fill="#D9714B" points="247.093,-121.441 247.093,-106.892 244.333,-106.892 244.333,-122.682 			"/>
			<polyline fill="#D9714B" points="253.427,-119.305 253.427,-108.755 250.667,-108.755 250.667,-120.545 			"/>
			<polyline fill="#D9714B" points="259.667,-118.305 259.667,-107.755 256.907,-107.755 256.907,-119.545 			"/>
		</g>
		<path fill="none" stroke="#D9714B" stroke-miterlimit="10" d="M300.553-113.65c-24.354,0-47.586-4.805-68.799-13.52
			c-65.939-27.087-112.371-91.944-112.371-167.65"/>
		<rect x="116" y="-294.82" fill="#D9714B" width="4.973" height="310.521"/>
		<rect x="116.924" y="-115.787" fill="#D9714B" width="183.629" height="9.375"/>
	</g>
	<g id="bridge_x5F_l2" display="inline">
		<g id="Layer_5_copy_2">
			<polyline fill="#D9714B" points="375.422,-129.638 375.422,-113.848 372.662,-113.848 372.662,-128.397 			"/>
			<polyline fill="#D9714B" points="381.422,-132.508 381.422,-113.848 378.662,-113.848 378.662,-131.157 			"/>
			<polyline fill="#D9714B" points="387.422,-135.667 387.422,-113.848 384.662,-113.848 384.662,-134.178 			"/>
			<polyline fill="#D9714B" points="393.422,-139.118 393.422,-113.848 390.662,-113.848 390.662,-137.488 			"/>
			<polyline fill="#D9714B" points="399.422,-142.877 399.422,-113.848 396.662,-113.848 396.662,-141.107 			"/>
			<polyline fill="#D9714B" points="405.422,-146.988 405.422,-113.848 402.662,-113.848 402.662,-145.058 			"/>
			<polyline fill="#D9714B" points="411.422,-151.468 411.422,-113.848 408.662,-113.848 408.662,-149.357 			"/>
			<polyline fill="#D9714B" points="417.422,-156.338 417.422,-113.848 414.662,-113.848 414.662,-154.048 			"/>
			<polyline fill="#D9714B" points="423.422,-161.658 423.422,-113.848 420.662,-113.848 420.662,-159.158 			"/>
			<polyline fill="#D9714B" points="429.422,-167.488 429.422,-113.848 426.662,-113.848 426.662,-164.738 			"/>
			<polyline fill="#D9714B" points="435.422,-173.897 435.422,-113.848 432.662,-113.848 432.662,-170.868 			"/>
			<polyline fill="#D9714B" points="441.422,-180.958 441.422,-113.848 438.662,-113.848 438.662,-177.618 			"/>
			<polyline fill="#D9714B" points="447.422,-188.848 447.422,-113.848 444.662,-113.848 444.662,-185.118 			"/>
			<polyline fill="#D9714B" points="453.422,-197.738 453.422,-113.848 450.662,-113.848 450.662,-193.508 			"/>
			<polyline fill="#D9714B" points="459.422,-207.938 459.422,-113.848 456.662,-113.848 456.662,-203.048 			"/>
			<polyline fill="#D9714B" points="465.422,-219.978 465.422,-113.848 462.662,-113.848 462.662,-214.158 			"/>
			<polyline fill="#D9714B" points="471.422,-235.038 471.422,-113.848 468.662,-113.848 468.662,-227.638 			"/>
			<polyline fill="#D9714B" points="476.512,-252.518 477.422,-252.518 477.422,-113.848 474.662,-113.848 474.662,-245.357 			"/>
			<polyline fill="#D9714B" points="368.966,-127.482 368.966,-111.692 366.206,-111.692 366.206,-126.242 			"/>
			<polyline fill="#D9714B" points="362.726,-124.68 362.726,-108.89 359.966,-108.89 359.966,-123.439 			"/>
			<polyline fill="#D9714B" points="356.633,-122.68 356.633,-106.89 353.873,-106.89 353.873,-121.439 			"/>
			<polyline fill="#D9714B" points="350.299,-120.543 350.299,-108.753 347.539,-108.753 347.539,-119.303 			"/>
			<polyline fill="#D9714B" points="344.059,-119.543 344.059,-107.753 341.299,-107.753 341.299,-118.303 			"/>
		</g>
		<path fill="none" stroke="#D9714B" stroke-miterlimit="10" d="M300.413-113.648c24.354,0,47.587-4.805,68.8-13.52
			c65.939-27.087,112.37-91.944,112.37-167.65"/>
		<rect x="479.993" y="-294.818" fill="#D9714B" width="4.973" height="310.521"/>
		<rect x="300.413" y="-115.785" fill="#D9714B" width="183.629" height="9.375"/>
	</g>
	<g id="bridge_x5F_r2" display="inline">
		<g id="Layer_5_copy_3">
			<polyline fill="#D9714B" points="597.27,-128.397 597.27,-113.848 594.51,-113.848 594.51,-129.638 			"/>
			<polyline fill="#D9714B" points="591.27,-131.157 591.27,-113.848 588.51,-113.848 588.51,-132.508 			"/>
			<polyline fill="#D9714B" points="585.27,-134.178 585.27,-113.848 582.51,-113.848 582.51,-135.667 			"/>
			<polyline fill="#D9714B" points="579.27,-137.488 579.27,-113.848 576.51,-113.848 576.51,-139.118 			"/>
			<polyline fill="#D9714B" points="573.27,-141.107 573.27,-113.848 570.51,-113.848 570.51,-142.877 			"/>
			<polyline fill="#D9714B" points="567.27,-145.058 567.27,-113.848 564.51,-113.848 564.51,-146.988 			"/>
			<polyline fill="#D9714B" points="561.27,-149.357 561.27,-113.848 558.51,-113.848 558.51,-151.468 			"/>
			<polyline fill="#D9714B" points="555.27,-154.048 555.27,-113.848 552.51,-113.848 552.51,-156.338 			"/>
			<polyline fill="#D9714B" points="549.27,-159.158 549.27,-113.848 546.51,-113.848 546.51,-161.658 			"/>
			<polyline fill="#D9714B" points="543.27,-164.738 543.27,-113.848 540.51,-113.848 540.51,-167.488 			"/>
			<polyline fill="#D9714B" points="537.27,-170.868 537.27,-113.848 534.51,-113.848 534.51,-173.897 			"/>
			<polyline fill="#D9714B" points="531.27,-177.618 531.27,-113.848 528.51,-113.848 528.51,-180.958 			"/>
			<polyline fill="#D9714B" points="525.27,-185.118 525.27,-113.848 522.51,-113.848 522.51,-188.848 			"/>
			<polyline fill="#D9714B" points="519.27,-193.508 519.27,-113.848 516.51,-113.848 516.51,-197.738 			"/>
			<polyline fill="#D9714B" points="513.27,-203.048 513.27,-113.848 510.51,-113.848 510.51,-207.938 			"/>
			<polyline fill="#D9714B" points="507.27,-214.158 507.27,-113.848 504.51,-113.848 504.51,-219.978 			"/>
			<polyline fill="#D9714B" points="501.27,-227.638 501.27,-113.848 498.51,-113.848 498.51,-235.038 			"/>
			<polyline fill="#D9714B" points="495.27,-245.357 495.27,-113.848 492.51,-113.848 492.51,-252.518 493.42,-252.518 			"/>
			<polyline fill="#D9714B" points="603.726,-126.242 603.726,-111.692 600.966,-111.692 600.966,-127.482 			"/>
			<polyline fill="#D9714B" points="609.966,-123.439 609.966,-108.89 607.206,-108.89 607.206,-124.68 			"/>
			<polyline fill="#D9714B" points="616.059,-121.439 616.059,-106.89 613.299,-106.89 613.299,-122.68 			"/>
			<polyline fill="#D9714B" points="622.393,-119.303 622.393,-108.753 619.633,-108.753 619.633,-120.543 			"/>
			<polyline fill="#D9714B" points="628.633,-118.303 628.633,-107.753 625.873,-107.753 625.873,-119.543 			"/>
		</g>
		<path fill="none" stroke="#D9714B" stroke-miterlimit="10" d="M669.519-113.648c-24.354,0-47.587-4.805-68.8-13.52
			c-65.939-27.087-112.37-91.944-112.37-167.65"/>
		<rect x="484.966" y="-294.818" fill="#D9714B" width="4.973" height="310.521"/>
		<rect x="485.89" y="-115.785" fill="#D9714B" width="183.629" height="9.375"/>
	</g>
</g>
<g id="water">
	<path fill="#0BB48A" d="M600,11.15v163H0v-163h0.5C7.45,11.15,13.3,6.42,15,0c1.7,6.42,7.55,11.15,14.5,11.15h1
		C37.45,11.15,43.3,6.42,45,0c1.7,6.42,7.55,11.15,14.5,11.15h1C67.45,11.15,73.3,6.42,75,0c1.7,6.42,7.55,11.15,14.5,11.15h1
		c6.95,0,12.8-4.73,14.5-11.15c1.7,6.42,7.55,11.15,14.5,11.15h1c6.95,0,12.8-4.73,14.5-11.15c1.7,6.42,7.55,11.15,14.5,11.15h1
		c6.95,0,12.8-4.73,14.5-11.15c1.7,6.42,7.55,11.15,14.5,11.15h1c6.95,0,12.8-4.73,14.5-11.15c1.7,6.42,7.55,11.15,14.5,11.15h1
		c6.95,0,12.8-4.73,14.5-11.15c1.7,6.42,7.55,11.15,14.5,11.15h1c6.95,0,12.8-4.73,14.5-11.15c1.7,6.42,7.55,11.15,14.5,11.15h1
		c6.95,0,12.8-4.73,14.5-11.15c1.7,6.42,7.55,11.15,14.5,11.15h1c6.95,0,12.8-4.73,14.5-11.15c1.7,6.42,7.55,11.15,14.5,11.15h1
		c6.95,0,12.8-4.73,14.5-11.15c1.7,6.42,7.55,11.15,14.5,11.15h1c6.95,0,12.8-4.73,14.5-11.15c1.7,6.42,7.55,11.15,14.5,11.15h1
		c6.95,0,12.8-4.73,14.5-11.15c1.7,6.42,7.55,11.15,14.5,11.15h1c6.95,0,12.8-4.73,14.5-11.15c1.7,6.42,7.55,11.15,14.5,11.15h1
		c6.95,0,12.8-4.73,14.5-11.15c1.7,6.42,7.55,11.15,14.5,11.15h1c6.95,0,12.8-4.73,14.5-11.15c1.7,6.42,7.55,11.15,14.5,11.15h1
		c6.95,0,12.8-4.73,14.5-11.15c1.7,6.42,7.55,11.15,14.5,11.15h1c6.95,0,12.8-4.73,14.5-11.15c1.7,6.42,7.55,11.15,14.5,11.15h1
		c6.95,0,12.8-4.73,14.5-11.15c1.7,6.42,7.55,11.15,14.5,11.15H600z"/>
	<path fill="#90D9C9" d="M189.29,64.82c-0.51,7.82-7.01,14-14.96,14h-1c-6.95,0-12.79-4.729-14.5-11.15
		c-1.7,6.421-7.54,11.15-14.5,11.15h-1c-6.95,0-12.79-4.729-14.5-11.15c-1.7,6.421-7.54,11.15-14.5,11.15h-1
		c-7.94,0-14.45-6.18-14.96-14H189.29z"/>
	<path fill="#90D9C9" d="M444.91,105.15l-1.23,3.48c-0.06-0.211-0.12-0.421-0.18-0.631c-1.7,6.42-7.54,11.15-14.5,11.15h-1
		c-6.95,0-12.79-4.73-14.5-11.15c-1.7,6.42-7.54,11.15-14.5,11.15h-1c-7.94,0-14.45-6.18-14.96-14H444.91z"/>
</g>
</svg>
